<svg xmlns="http://www.w3.org/2000/svg" viewBox="0 0 881.29 349.06"><defs><style>.cls-1,.cls-2{fill:#0e1f17;}.cls-1{fill-rule:evenodd;}</style></defs><g id="Layer_2" data-name="Layer 2"><path class="cls-1" d="M672.39,144.61v55.15q0,16.73-8.31,24.74t-24.8,8A59.55,59.55,0,0,1,622.06,230a34,34,0,0,1-13.24-7l5.53-8.9a33,33,0,0,0,11,6.08,42,42,0,0,0,13.55,2.22q11.19,0,16.55-5.29T660.83,201v-5.05a25.64,25.64,0,0,1-10.05,7.4,33.64,33.64,0,0,1-12.95,2.47,34.83,34.83,0,0,1-16.55-3.92,29.06,29.06,0,0,1-11.62-11,32.73,32.73,0,0,1,0-32.15,28.73,28.73,0,0,1,11.62-10.9A35.26,35.26,0,0,1,637.83,144a33.78,33.78,0,0,1,13.43,2.65,24.91,24.91,0,0,1,10.17,7.83v-9.88Zm-33.23,51A23.59,23.59,0,0,0,650.41,193a19.52,19.52,0,0,0,7.83-7.4,20.63,20.63,0,0,0,2.83-10.78q0-9.27-6.14-15t-15.77-5.72q-9.76,0-15.9,5.72t-6.14,15A20.73,20.73,0,0,0,620,185.61a19.59,19.59,0,0,0,7.83,7.4A23.86,23.86,0,0,0,639.16,195.66Z"/><rect class="cls-2" x="728.01" y="119.09" width="11.56" height="89.34"/><path class="cls-1" d="M819.28,176.88a33.18,33.18,0,0,1-.24,3.49H767.27a20,20,0,0,0,7.4,13.55Q781,199,790.38,199q11.45,0,18.43-7.7l6.38,7.46a27.78,27.78,0,0,1-10.78,7.71A40.6,40.6,0,0,1,772.08,205,29.64,29.64,0,0,1,760,193.38a33.33,33.33,0,0,1-4.27-16.86,33.84,33.84,0,0,1,4.15-16.74,29.79,29.79,0,0,1,11.44-11.62A32.6,32.6,0,0,1,787.74,144a31.94,31.94,0,0,1,16.31,4.15,29.21,29.21,0,0,1,11.2,11.62,35.41,35.41,0,0,1,4,17.1Zm-31.54-23.12a20,20,0,0,0-13.91,5.06,20.39,20.39,0,0,0-6.56,13.24H808.2a20.53,20.53,0,0,0-6.56-13.18A19.82,19.82,0,0,0,787.74,153.76Z"/><path class="cls-1" d="M694.43,144.61H706v63.82H694.43V160.14c0-7.63-5.27-8.81-12.13-12.55a1.53,1.53,0,0,1-.8-1.8,1.72,1.72,0,0,1,1.69-1.18Z"/><path class="cls-1" d="M683.42,120.6c-2.1-.9-1.61-1.49-1.59-1.49l22.7,0a1.46,1.46,0,0,1,1,.41,1.5,1.5,0,0,1,.41,1v22.29a1.27,1.27,0,0,1-1-.57,36.12,36.12,0,0,0-5.25-9.31l1.38-6.24a.8.8,0,0,0-.19.18l-.14.2c-.54.87-1.34,3.6-1.87,4.84a37.1,37.1,0,0,0-5.52-5.33c.25-.11.51-.21.73-.32.64-.32,1.2-.63,1.83-.93l3.87-1.87a10.59,10.59,0,0,0-2.29.7l-2.18.56c-.7.19-2,.53-3.35.83A38.08,38.08,0,0,0,683.42,120.6Z"/><path class="cls-1" d="M588.72,208.43h12.39l-40.59-89.34H547.89l-40.46,89.34h13.15c18.48-42,12.07-27.49,33.56-76.32,12.4,28.16,15.46,35.13,19.21,43.67l-17.85,0s-.69.81,2.19,2c11.6,4.2,22.63,15,28.16,26.35l1.86,4.23h1Z"/><path class="cls-1" d="M208.83,198.77a3.65,3.65,0,0,1-1.89-4.3,4.06,4.06,0,0,1,4-2.81h57c4.66,0,4.17,1.3,4.17,4.17v57l-1.22,7.81-1,.49-3.28-4.56c-2.26.5-8.39-9.3-8.72-11.23-.25-.74-.49-1.48-.77-2.2s-6.15-11.06-6.25-11.18c-10.19-13.78-21.14-21.79-42-33.15Zm55.22,46c0-.43-.55-6.76-.6-7.16l.12-8.47c.07-1.4,1.51-8,1.87-9.92.9-4.72,1.87-10.6,2.37-15.43l.37-5.56c.27-.23,2.14-1.16.53-1.46-1-.18-8.57.21-9.75.29-3.18.23-19.23,1.67-22.13,1.37-1.65-.18-1.64.2-3.05.39l-4.59.39c-1.13.07-.73.18-1.38.35-1.6.43-5.21-.23-5.66,1.15l5.21.49c1.4,1.87.18-.27,3.23,2.13a26,26,0,0,1,2.89,2.44c3.14,3.38,3.26,5,4.5,6.2,2.44-.25,5.26-1.49,7.63-2.13l3.77-1a18.34,18.34,0,0,1,4-1.2l-6.7,3.23c-1.1.52-2.07,1.06-3.17,1.61s-2.67.91-2.95,1.94l.4.12.1,0v1.14c.52.28,1.15.45,1.6.76a16,16,0,0,1,3.55,3.69,19.38,19.38,0,0,0,3.27,3.8c1,1,.08.85.74,1.72l1.38-3c.9-1.88,2.43-7.18,3.43-8.79a3.12,3.12,0,0,1,.25-.35c.21-.25.08-.13.32-.31L252.75,226a1.21,1.21,0,0,0-.05.14c-.13.39-.27,0-.11.84,3.67-.62,7.2,4.49,8.11,6.76.76,1.9-.37.08,1.05,2a4.07,4.07,0,0,1,.87,2.18c0,.37,0,.72,0,1C263.16,239.27,263.72,244.56,264.05,244.79Z"/><path class="cls-1" d="M188.05,96.13c-7.82-3.34-6-5.54-5.94-5.54l84.55-.08a5.2,5.2,0,0,1,5.42,5.41v83c-2.35-.32-2.67-1-3.67-2.14a134.91,134.91,0,0,0-19.58-34.69L254,118.92a2.08,2.08,0,0,0-.7.66c-.09.11-.45.61-.53.75-2,3.24-5,13.39-7,18a136.2,136.2,0,0,0-20.58-19.87c.94-.41,1.91-.78,2.73-1.19,2.38-1.19,4.46-2.34,6.84-3.46l14.42-7c-3.77.35-7.14,2.28-8.54,2.58l-8.13,2.1c-2.59.7-7.6,2-12.48,3.09C210.31,107.78,199.44,100.26,188.05,96.13Z"/><path class="cls-1" d="M86,157.05c5.11,4.16,12,7.68,17.11,12,6.94,6,15,12.09,21.56,18.46,3.31,3.23,7.12,6.87,10.11,10.38,8.69,10.1,13.9,17.76,22.6,27.9L159.3,228c7.31,8.68,10.43,19.07,20,29.19.47.49,2.83,3.84,3.45,3.88,1.82-1,6.23-6.45,6.23-9.69V178.34a22.05,22.05,0,0,0-1.88-4c-.4-.81-1.19-3.29-1.93-3.56-1.27.53-1.9,2.86-2.1,4a17.66,17.66,0,0,0-.36,6.11c.79,11.08.9,22.3.86,33.4-.05,9.1.52,14.67-1,23.53-.16.76-.38,1.66-.64,2.58-.22-.38-.44-.73-.61-1a27.89,27.89,0,0,0-2.21-3.73c-.57-.87-1.17-1.72-1.75-2.57l-2.62-3.66c-3.62-5.47-10-9.49-14.89-14a16.34,16.34,0,0,1-1.29-1,11.45,11.45,0,0,1,.06-2.27c.35-1.38-.1-4.09,0-5.54,0-3.25,7.17-20.69,6.54-24.93-.05.2-10.35,15.95-13,21.81-1.81-3.64-.75-3.21-5.86-7.57a44.34,44.34,0,0,0-5.15-3.65l-.22-.12a8,8,0,0,0-1.8-.84c-3.15-2.81-7.2-4.09-8.39-6.68,8.09-4.46,25.16-15.16,31.88-20.68-2.19.53-14.05,5.48-15.19,6-2.21,1-13,5-19.79,8.25a14.15,14.15,0,0,0-1.48-1.84l-.28-.3c-.76-.82-1.55-1.64-2.34-2.45,0-1.57-9.31-6.29-10.38-7.71-4.07-5.23-18.43-18.65-26.53-19,16.85.87,29.06,0,46.13.26,7.32.11,14.63.25,21.95.37L172,148c2.55-.39,12.16-1.77,13.53-3.37-1.74-2.8-14.47-3-17.09-3.08h-100c-4.81,0-6.09,1.11-4.94,2.51C67.08,148.4,80.86,152.9,86,157.05Z"/><polygon class="cls-1" points="341.89 130.19 341.89 161.33 386.69 161.33 386.69 172.31 341.89 172.31 341.89 208.43 329.13 208.43 329.13 119.09 392.18 119.09 392.18 130.19 341.89 130.19"/><rect class="cls-2" x="403.9" y="119.09" width="11.56" height="89.34"/><path class="cls-1" d="M494,144.61,463,214.81q-4.09,9.75-9.57,13.72a21.85,21.85,0,0,1-13.19,4,27.64,27.64,0,0,1-9.08-1.51,18.66,18.66,0,0,1-7.29-4.39l4.94-8.67a16.09,16.09,0,0,0,11.43,4.7,11.09,11.09,0,0,0,7.05-2.23q2.82-2.24,5.12-7.65l2-4.45-28.17-63.7h12l22.27,51,22-51Z"/></g></svg>