<svg xmlns="http://www.w3.org/2000/svg" viewBox="0 0 1276.75 370.64"><defs><style>.cls-1{fill:#949699;}.cls-1,.cls-2,.cls-3{fill-rule:evenodd;}.cls-2,.cls-5{fill:#529644;}.cls-3,.cls-4{fill:#0e1f17;}</style></defs><g id="Planes"><path class="cls-1" d="M245.36,208.3a3.66,3.66,0,0,1-1.89-4.3,4.08,4.08,0,0,1,4-2.81h57c4.65,0,4.16,1.3,4.17,4.17v57l-1.21,7.82-1,.49-3.28-4.56c-2.26.49-8.4-9.3-8.73-11.24-.25-.73-.49-1.47-.77-2.2s-6.15-11.06-6.25-11.18c-10.19-13.78-21.14-21.79-42-33.16Zm55.25,46c0-.42-.56-6.76-.6-7.15l.12-8.48c.06-1.4,1.5-8,1.87-9.92.9-4.72,1.86-10.61,2.36-15.44l.38-5.56c.27-.23,2.14-1.16.52-1.46-1-.18-8.57.21-9.75.29-3.17.23-19.23,1.67-22.13,1.37-1.66-.18-1.64.2-3.06.39l-4.59.39c-1.13.07-.73.18-1.38.35-1.6.43-5.21-.23-5.66,1.15l5.21.49c1.41,1.87.18-.27,3.23,2.13a25.13,25.13,0,0,1,2.9,2.45c3.13,3.37,3.25,4.94,4.49,6.19,2.45-.25,5.27-1.49,7.63-2.12l3.78-1a18.34,18.34,0,0,1,4-1.2l-6.7,3.23c-1.11.53-2.07,1.06-3.18,1.61s-2.67.92-2.94,1.95l.4.12.1,0v1.14c.52.28,1.15.44,1.6.75a16.21,16.21,0,0,1,3.55,3.7,19.38,19.38,0,0,0,3.27,3.8c1,1,.08.85.74,1.72l1.38-3c.9-1.88,2.43-7.19,3.43-8.8,0-.06.2-.3.25-.35a1,1,0,0,1,.32-.31l-2.82,12.73c0,.05,0,.1-.05.14-.13.39-.27,0-.11.84,3.67-.62,7.2,4.49,8.11,6.76.76,1.9-.37.08,1.05,2a4.07,4.07,0,0,1,.87,2.18c0,.38,0,.73,0,1C299.72,248.81,300.27,254.11,300.61,254.33Z"/><path class="cls-2" d="M224.58,105.63c-7.82-3.35-6-5.55-5.94-5.55l84.58-.08a5.24,5.24,0,0,1,5.42,5.42v83.07c-2.35-.33-2.67-1.05-3.68-2.15a134.81,134.81,0,0,0-19.58-34.7l5.15-23.22a2.08,2.08,0,0,0-.7.66,9.21,9.21,0,0,0-.53.76c-2,3.24-5,13.39-7,18A136.27,136.27,0,0,0,261.75,128c.93-.41,1.9-.78,2.73-1.19,2.37-1.19,4.45-2.34,6.84-3.46l14.41-7c-3.77.35-7.14,2.28-8.53,2.58l-8.14,2.1c-2.59.7-7.6,2-12.48,3.09C246.85,117.28,236,109.76,224.58,105.63Z"/><path class="cls-3" d="M122.51,166.57c5.1,4.16,12,7.67,17.11,12,6.94,6,15,12.09,21.57,18.46,3.31,3.24,7.12,6.87,10.12,10.38,8.68,10.12,13.89,17.78,22.6,27.91l1.9,2.27c7.32,8.68,10.44,19.07,20,29.19.47.5,2.82,3.85,3.44,3.89,1.82-1.05,6.24-6.45,6.24-9.69V187.87a21.84,21.84,0,0,0-1.88-4c-.4-.81-1.19-3.29-1.93-3.55-1.27.52-1.9,2.85-2.1,4a17.49,17.49,0,0,0-.36,6.12c.79,11.08.9,22.3.86,33.4-.05,9.1.52,14.68-1,23.55-.15.75-.37,1.65-.63,2.58-.22-.39-.44-.74-.61-1a28,28,0,0,0-2.22-3.73c-.56-.86-1.16-1.72-1.75-2.57l-2.61-3.66c-3.63-5.48-10-9.49-14.9-14a16.34,16.34,0,0,1-1.29-1,11.5,11.5,0,0,1,.06-2.27c.35-1.38-.1-4.09,0-5.53,0-3.26,7.17-20.71,6.54-24.94,0,.19-10.35,15.95-13,21.81-1.82-3.64-.75-3.21-5.87-7.57a43.88,43.88,0,0,0-5.14-3.65l-.23-.12a7.75,7.75,0,0,0-1.8-.84c-3.15-2.81-7.2-4.1-8.39-6.68,8.09-4.46,25.17-15.17,31.89-20.69-2.19.53-14,5.48-15.19,6-2.22,1-13,5-19.8,8.25a14.15,14.15,0,0,0-1.48-1.84s-.19-.19-.28-.3c-.77-.82-1.55-1.64-2.34-2.45,0-1.57-9.32-6.29-10.39-7.71-4.07-5.23-18.43-18.66-26.53-19,16.85.87,29.06,0,46.14.26,7.32.11,14.64.25,22,.38l17.34.5c2.55-.38,12.16-1.77,13.53-3.36-1.74-2.81-14.48-3.05-17.09-3.09h-100c-4.81,0-6.09,1.11-4.94,2.51C103.57,157.91,117.36,162.42,122.51,166.57Z"/></g><g id="Fly_Agile" data-name="Fly Agile"><path class="cls-3" d="M673.54,141.77c-21.1,47.95-14.81,33.69-32.95,74.94H627.68L667.4,129h12.41l39.84,87.72H706.5C687.94,174.54,695,190.61,673.54,141.77Z"/><path class="cls-3" d="M789.64,154.05V208.2q0,16.43-8.16,24.29t-24.35,7.86a58.37,58.37,0,0,1-16.9-2.42,33.48,33.48,0,0,1-13-6.92l5.44-8.75a31.9,31.9,0,0,0,10.82,6,41,41,0,0,0,13.29,2.19q11,0,16.26-5.2t5.26-15.84v-5a25.08,25.08,0,0,1-9.87,7.27,32.82,32.82,0,0,1-12.71,2.43,34.11,34.11,0,0,1-16.25-3.85,28.55,28.55,0,0,1-11.41-10.75,32.16,32.16,0,0,1,0-31.57,28.23,28.23,0,0,1,11.41-10.7,34.66,34.66,0,0,1,16.25-3.78,33.26,33.26,0,0,1,13.18,2.6,24.51,24.51,0,0,1,10,7.69v-9.7ZM757,204.18a23.14,23.14,0,0,0,11-2.61,19.22,19.22,0,0,0,7.69-7.26,20.33,20.33,0,0,0,2.78-10.58q0-9.1-6-14.72T757,163.39q-9.57,0-15.6,5.62t-6,14.72a20.24,20.24,0,0,0,2.78,10.58,19.19,19.19,0,0,0,7.68,7.26A23.4,23.4,0,0,0,757,204.18Z"/><rect class="cls-4" x="844.25" y="128.99" width="11.35" height="87.72"/><path class="cls-3" d="M933.86,185.73c0,.87-.08,2-.23,3.43H882.79a19.7,19.7,0,0,0,7.27,13.3q6.21,5,15.43,5,11.24,0,18.09-7.57l6.26,7.33a27.51,27.51,0,0,1-10.58,7.57,39.89,39.89,0,0,1-31.74-1.48,29.1,29.1,0,0,1-11.88-11.41,32.66,32.66,0,0,1-4.2-16.55A33.18,33.18,0,0,1,875.52,169a29.26,29.26,0,0,1,11.23-11.41,32,32,0,0,1,16.14-4.08,31.34,31.34,0,0,1,16,4.08,28.61,28.61,0,0,1,11,11.41,34.72,34.72,0,0,1,4,16.78Zm-31-22.69a19.59,19.59,0,0,0-13.65,5,20,20,0,0,0-6.45,13H923a20.14,20.14,0,0,0-6.45-12.95A19.45,19.45,0,0,0,902.89,163Z"/><path class="cls-3" d="M811.28,154.05h11.34v62.66H811.28V169.3c0-7.49-5.18-8.65-11.91-12.32a1.51,1.51,0,0,1-.78-1.77,1.67,1.67,0,0,1,1.65-1.16Z"/><path class="cls-2" d="M800.47,130.47c-2.06-.88-1.58-1.46-1.56-1.46l22.28,0a1.53,1.53,0,0,1,1,.4,1.49,1.49,0,0,1,.4,1v21.89a1.25,1.25,0,0,1-1-.57,35.45,35.45,0,0,0-5.16-9.14l1.36-6.12a.6.6,0,0,0-.19.17,2.43,2.43,0,0,1-.14.2c-.53.86-1.31,3.53-1.83,4.75a35.82,35.82,0,0,0-5.43-5.23c.25-.11.51-.21.72-.32.63-.31,1.18-.61,1.81-.91l3.8-1.83a10.12,10.12,0,0,0-2.25.68l-2.15.55c-.68.18-2,.52-3.29.82A37.31,37.31,0,0,0,800.47,130.47Z"/><path class="cls-3" d="M677,186.68c-2.84-1.21-2.18-2-2.15-2l27.69,0a2,2,0,0,1,1.41.56,2,2,0,0,1,.55,1.41l3,30.1a1.7,1.7,0,0,1-1.33-.78C701.43,203.57,689.56,191.23,677,186.68Z"/><polygon class="cls-3" points="377.37 139.85 377.37 170.42 421.35 170.42 421.35 181.2 377.37 181.2 377.37 216.66 364.83 216.66 364.83 128.94 426.73 128.94 426.73 139.85 377.37 139.85"/><rect class="cls-4" x="438.24" y="128.95" width="11.35" height="87.72"/><path class="cls-3" d="M526.67,154l-30.38,68.92q-4,9.57-9.4,13.47A21.44,21.44,0,0,1,474,240.30a27.5,27.5,0,0,1-8.93-1.47,18.36,18.36,0,0,1-7.15-4.32l4.85-8.51A15.81,15.81,0,0,0,474,230.61a10.82,10.82,0,0,0,6.91-2.19c1.85-1.45,3.53-4,5-7.5l2-4.38L460.23,154h11.83l21.86,50.12L515.56,154Z"/></g><g id="the_Life" data-name="the Life"><path class="cls-5" d="M1173.49,191.8c-2.23-1.3-5.23-3-7.82-3.14a33.14,33.14,0,0,1-8.59-1.38c-.79-.28-.52.15-.85-.24,2.13-.89,4.21-1.86,6.22-2.93,6.61-3.52,14.06-9.66,8.33-17.83-3.8-5.43-13.15-10.42-19.71-9.95-5.89.42-11.5,6.19-12.9,11.55-1.28,4.88.37,9.25,3.64,13l-2.7.94a189.86,189.86,0,0,1-28.55,7c-3.35.6-6.73,1.2-10.14,1.71a80.79,80.79,0,0,0,23.95-41.62c2.36-10.72,2.63-23.61-6.53-32.21-1.87-1.76-10.35-7.12-12.75-5.26-8.54,6.58-12.59,17.09-15.09,27.34-2.88,11.83-3.84,24.17-4.35,36.43-.15,3.54-.32,7.09-.49,10.66a44.42,44.42,0,0,1-12.05,8.05A19,19,0,0,1,1070,195h0v0a20.61,20.61,0,0,1-1.4-3.77c-1.73-6.08-1.4-12.43-1.7-18.59-.18-3.59-13.48-6.58-13.47-6.37.48,9.67-.79,22.37,8.43,29.21,4.75,3.51,11.51,6.83,17.41,6.79a15.91,15.91,0,0,0,5.37-1c-.36,12.71-.23,25.48,1.51,38.06,1.57,11.29,4.57,23,12.8,31.87,1.56,1.68,10.82,7.23,12.83,5.29,20.57-19.93,14.85-59.63-8.75-78a189.76,189.76,0,0,0,24.56-3.61,171.16,171.16,0,0,0,24.76-6.31c8.31,4.26,18.23,6.54,24.17,6.28C1178,194.77,1173.52,191.81,1173.49,191.8Zm-61.56-67.14c1.14,6.59,0,13.75-1.43,19.63a76.35,76.35,0,0,1-10.63,24.55c.4-4.88.94-9.74,1.72-14.56C1103.25,144.14,1105.86,133.09,1111.93,124.66Zm-1.6,107.6c.87,10.86-1,22.1-6.65,31.07-3.47-8.73-4.53-18.63-5.13-27.25-.82-11.72-.34-23.35,0-35C1105.91,209.71,1109.51,222,1110.33,232.26Zm45-64.35a14.68,14.68,0,0,1,4-3.09,7.62,7.62,0,0,1-.84,5,18.15,18.15,0,0,1-7.11,6.83A14,14,0,0,1,1155.31,167.91Z"/><path class="cls-5" d="M1049.79,200.51c-1.73-.95-4.87-2.83-7-2.36-13.61,3-27.28,7.17-40.55,11.51a142.75,142.75,0,0,0-24.92,10.54c-.87-38.93-.34-77.86.61-116.77.08-3.21-11.7-5.93-11.71-5.55-1.08,43.23-1.67,86.48-.37,129.72.08,2.51,9.92,7,11.8,5.58,11.15-8.4,24-13.73,37.11-17.93,12.53-4,26.13-6.17,38.15-11.6C1054.35,203,1050.17,200.72,1049.79,200.51Z"/><path class="cls-5" d="M1083.55,113.77a7.51,7.51,0,0,0-3.61-.21c-.5.17-1,.32-1.52.47a3.51,3.51,0,0,0-1.18.15l-2.09.7c-3.62.82-7.32,1.34-11,1.88-5.48.8-10.92,1.79-16.36,2.75-11.19,2-22.48,3.82-33.94,3.44-1.1,0-1,.21-.38.73.78.67,3,.84,3.92.87,11.92.42,23.62-1.3,35.28-3.34,2.91-.51,5.82-1,8.74-1.52q-8.87,3.24-17.55,6.85c-2.56,1.08-5.11,2.19-7.65,3.31-1.33.59-2.75,1.12-4,1.81q-.43.24-.84.51c-.39.12-.4.26,0,.4s.37.26-.06.07c-.22-.07-.45-.16-.67-.25-4.13-1.66-7.81-4.33-11.53-6.71a9.67,9.67,0,0,0-4.38-1c-.46,0-2.43-.08-1.31.64,4.32,2.76,8.59,5.75,13.48,7.52a25.38,25.38,0,0,0,7.59,1.58c2.78.1,5.51-2,7.95-3.07,10.69-4.74,21.74-8.57,32.66-12.74-1.36,1.42-2.71,2.87-4,4.34a5.6,5.6,0,0,0-3.15-.14c-4.82,2.05-9.14,5.16-13.62,7.8-3.7,2.18-8,5.5-12.36,6.27-1,.17-.06.63.37.84a8.43,8.43,0,0,0,2.39.65,1.69,1.69,0,0,0-1,.1,60.75,60.75,0,0,0-5.53,4.35c-.35-2.31-1-4.58-1.5-6.9-.26-1.23-5.46-1.18-5.42-1,.82,3.92,2.27,7.7,2.84,11.67.1.74,4.18,1.28,4.23.77a14.7,14.7,0,0,0,.08-2.29c.5.14.94.25,1,.26.69.13,2.36.57,2.91,0,1.91-2.1,4.59-3.54,6.27-5.83a10,10,0,0,0-3.45-1.07c.38.05.75.08,1.1.11a10.77,10.77,0,0,1,6.91,3.08,5.59,5.59,0,0,0,2.92,1c-.23.38-.47.76-.69,1.15s4.87,2,5.65,1c8.37-10.09,16-20.57,25.3-29.92C1086.54,114.57,1083.6,113.78,1083.55,113.77Zm-26.38,26.91a21.93,21.93,0,0,0-7.28-2.88c3.44-1.22,6.64-3.49,9.68-5.26,2-1.19,4.12-2.35,6.19-3.56A124.4,124.4,0,0,0,1057.17,140.68Z"/><path class="cls-5" d="M606.41,203.62c-.91-.34-2.5-1-3.51-.56a25.74,25.74,0,0,1-3.95,1.42,18.22,18.22,0,0,0,5.36-11.2c.31-4.57-2.24-6.31-6.27-6.86-4.47-.61-7.45,3.05-8.61,7.34-1.3,4.82,0,8.11,2.46,10.14a18.15,18.15,0,0,1-3.59,2.5c-.17.1-1.6.7-2.67,1.08-.1-.18-.22-.35-.31-.54a22,22,0,0,1-1.46-5.3c-.71-3.15-1.55-6.1-4.34-7.8a13.5,13.5,0,0,0-1.38-.72,62.29,62.29,0,0,0,3.5-11.44c.84-4.09,1.49-9.59-1.59-12.72-2.43-2.47-8.2-4.6-11.35-2.34-3.58,2.58-5.19,17.62-5.19,17.62a77.88,77.88,0,0,0,1,20,38.19,38.19,0,0,1-7.09,6.15,18.3,18.3,0,0,1-5.11,2.52c-.24.06-.64.07-1,.11-.39-.67-1.37-1.64-1.63-2.24-2.84-6.48-1-14.76.71-21.44h0a48.27,48.27,0,0,0,7.41-2.32,10.74,10.74,0,0,0,3.55-3.12c.18-.22,1.77-2.27.92-2.18a70.48,70.48,0,0,0-10.3,2.09,102.69,102.69,0,0,0,3.8-15.78c.15-1.14-5.46-2.23-5.54-1.59-.93,6.63-3.17,13-5,19.39-.72.23-1.44.46-2.14.7a10.57,10.57,0,0,0-4,3.2c-.22.25-2.11,3-1.33,2.77a63.78,63.78,0,0,1,6.17-1.69c-1.44,6.2-2.83,14.88,1,20.27,2.41,3.39,7.71,4.72,11.61,4,3.54-.61,6.82-2.8,9.68-5.28,1.32.81,5.13,1.73,5.28,1,.65-3,1.09-6,1.9-9v0a46,46,0,0,0,3.46-6,15.06,15.06,0,0,1,.92,2.75c.43,1.7.67,3.48,1.18,5.16,1,3.19,2.89,4.6,5.91,5.45,4.17,1.16,8.61-.28,12.2-3.11a19.45,19.45,0,0,0,11-1.27C608.83,204.59,606.54,203.67,606.41,203.62Zm-30.49-22.76-1.64,5.69c-.64,1.94-1.37,3.9-2.19,5.8l-.33.14a7.21,7.21,0,0,0-2.84,3.18,96.9,96.9,0,0,1,1.72-20.06,15.72,15.72,0,0,1,2.14-5.56,6.4,6.4,0,0,1,2-2l.07-.07a5.66,5.66,0,0,1,.82,1.06C777.75,172.35,576.82,177.22,575.92,180.86Zm22.33,12.78a18.21,18.21,0,0,1-3.43,7.12,13.12,13.12,0,0,1,.4-5.34,14.18,14.18,0,0,1,1.49-3.6,7.71,7.71,0,0,1,1.83-1.86A12.61,12.61,0,0,1,598.25,193.64Z"/></g></svg>