<svg xmlns="http://www.w3.org/2000/svg" viewBox="0 0 1607.86 370.64"><defs><style>.cls-1,.cls-4{fill:#949699;}.cls-1,.cls-2,.cls-3{fill-rule:evenodd;}.cls-2,.cls-6{fill:#529644;}.cls-3,.cls-5{fill:#0e1f17;}</style></defs><g id="Planes"><path class="cls-1" d="M245.36,208.3a3.66,3.66,0,0,1-1.89-4.3,4.08,4.08,0,0,1,4-2.81h57c4.65,0,4.16,1.3,4.17,4.17v57l-1.21,7.82-1,.49-3.28-4.56c-2.26.49-8.4-9.3-8.73-11.24-.25-.73-.49-1.47-.77-2.2s-6.15-11.06-6.25-11.18c-10.19-13.78-21.14-21.79-42-33.16Zm55.25,46c0-.42-.56-6.76-.6-7.15l.12-8.48c.06-1.4,1.5-8,1.87-9.92.9-4.72,1.86-10.61,2.36-15.44l.38-5.56c.27-.23,2.14-1.16.52-1.46-1-.18-8.57.21-9.75.29-3.17.23-19.23,1.67-22.13,1.37-1.66-.18-1.64.2-3.06.39l-4.59.39c-1.13.07-.73.18-1.38.35-1.6.43-5.21-.23-5.66,1.15l5.21.49c1.41,1.87.18-.27,3.23,2.13a25.13,25.13,0,0,1,2.9,2.45c3.13,3.37,3.25,4.94,4.49,6.19,2.45-.25,5.27-1.49,7.63-2.12l3.78-1a18.34,18.34,0,0,1,4-1.2l-6.7,3.23c-1.11.53-2.07,1.06-3.18,1.61s-2.67.92-2.94,1.95l.4.12.1,0v1.14c.52.28,1.15.44,1.6.75a16.21,16.21,0,0,1,3.55,3.7,19.38,19.38,0,0,0,3.27,3.8c1,1,.08.85.74,1.72l1.38-3c.9-1.88,2.43-7.19,3.43-8.8,0-.06.2-.3.25-.35a1,1,0,0,1,.32-.31l-2.82,12.73c0,.05,0,.1-.05.14-.13.39-.27,0-.11.84,3.67-.62,7.2,4.49,8.11,6.76.76,1.9-.37.08,1.05,2a4.07,4.07,0,0,1,.87,2.18c0,.38,0,.73,0,1C299.72,248.81,300.27,254.11,300.61,254.33Z"/><path class="cls-2" d="M224.58,105.63c-7.82-3.35-6-5.55-5.94-5.55l84.58-.08a5.24,5.24,0,0,1,5.42,5.42v83.07c-2.35-.33-2.67-1.05-3.68-2.15a134.81,134.81,0,0,0-19.58-34.7l5.15-23.22a2.08,2.08,0,0,0-.7.66,9.21,9.21,0,0,0-.53.76c-2,3.24-5,13.39-7,18A136.27,136.27,0,0,0,261.75,128c.93-.41,1.9-.78,2.73-1.19,2.37-1.19,4.45-2.34,6.84-3.46l14.41-7c-3.77.35-7.14,2.28-8.53,2.58l-8.14,2.1c-2.59.7-7.6,2-12.48,3.09C246.85,117.28,236,109.76,224.58,105.63Z"/><path class="cls-3" d="M122.51,166.57c5.1,4.16,12,7.67,17.11,12,6.94,6,15,12.09,21.57,18.46,3.31,3.24,7.12,6.87,10.12,10.38,8.68,10.12,13.89,17.78,22.6,27.91l1.9,2.27c7.32,8.68,10.44,19.07,20,29.19.47.5,2.82,3.85,3.44,3.89,1.82-1.05,6.24-6.45,6.24-9.69V187.87a21.84,21.84,0,0,0-1.88-4c-.4-.81-1.19-3.29-1.93-3.55-1.27.52-1.9,2.85-2.1,4a17.49,17.49,0,0,0-.36,6.12c.79,11.08.9,22.3.86,33.4-.05,9.1.52,14.68-1,23.55-.15.75-.37,1.65-.63,2.58-.22-.39-.44-.74-.61-1a28,28,0,0,0-2.22-3.73c-.56-.86-1.16-1.72-1.75-2.57l-2.61-3.66c-3.63-5.48-10-9.49-14.9-14a16.34,16.34,0,0,1-1.29-1,11.5,11.5,0,0,1,.06-2.27c.35-1.38-.1-4.09,0-5.53,0-3.26,7.17-20.71,6.54-24.94,0,.19-10.35,15.95-13,21.81-1.82-3.64-.75-3.21-5.87-7.57a43.88,43.88,0,0,0-5.14-3.65l-.23-.12a7.75,7.75,0,0,0-1.8-.84c-3.15-2.81-7.2-4.1-8.39-6.68,8.09-4.46,25.17-15.17,31.89-20.69-2.19.53-14,5.48-15.19,6-2.22,1-13,5-19.8,8.25a14.15,14.15,0,0,0-1.48-1.84s-.19-.19-.28-.3c-.77-.82-1.55-1.64-2.34-2.45,0-1.57-9.32-6.29-10.39-7.71-4.07-5.23-18.43-18.66-26.53-19,16.85.87,29.06,0,46.14.26,7.32.11,14.64.25,22,.38l17.34.5c2.55-.38,12.16-1.77,13.53-3.36-1.74-2.81-14.48-3.05-17.09-3.09h-100c-4.81,0-6.09,1.11-4.94,2.51C103.57,157.91,117.36,162.42,122.51,166.57Z"/></g><g id="Title"><g id="with_Giom" data-name="with Giom"><path class="cls-4" d="M1257.27,245.64l-8.6,22h-4L1238,251l-6.73,16.72h-4l-8.56-22h4l6.68,17.55,6.95-17.55h3.52l6.81,17.63,6.87-17.63Z"/><path class="cls-4" d="M1260.74,238.82a2.69,2.69,0,0,1,2.82-2.62,2.61,2.61,0,1,1-2.82,2.62Zm.74,6.82h4.17v22h-4.17Z"/><path class="cls-4" d="M1286.53,266.39a8.1,8.1,0,0,1-5,1.54c-4.65,0-7.29-2.46-7.29-6.91v-12.1h-3.91v-3.28h3.91v-4.82h4.16v4.82H1285v3.28h-6.61v11.94c0,2.37,1.31,3.7,3.61,3.7a5.44,5.44,0,0,0,3.26-1Z"/><path class="cls-4" d="M1313.4,255v12.68h-4.16V255.45c0-4.32-2.26-6.44-6.21-6.44-4.43,0-7.3,2.53-7.3,7.32v11.35h-4.17V236.83h4.17v11.93c1.74-2.12,4.6-3.33,8.12-3.33C1309.45,245.43,1313.4,248.51,1313.4,255Z"/><path class="cls-4" d="M1365.51,245.7h7.89v17.13c-4.68,3.62-11.22,5.46-17.56,5.46-13.91,0-24.16-9.27-24.16-22.1s10.25-22.1,24.28-22.1c7.5,0,13.78,2.4,18,7l-5.25,4.91a17.06,17.06,0,0,0-12.37-4.91c-9.55,0-16.28,6.2-16.28,15.1,0,8.72,6.73,15.1,16.22,15.1a18.68,18.68,0,0,0,9.22-2.21Z"/><path class="cls-4" d="M1384.36,224.71h8.33v43h-8.33Z"/><path class="cls-4" d="M1401.6,246.19c0-12.7,10.25-22.1,24.16-22.1s24.16,9.33,24.16,22.1-10.26,22.1-24.16,22.1S1401.6,258.9,1401.6,246.19Zm39.92,0c0-8.78-6.73-15.1-15.76-15.1s-15.77,6.32-15.77,15.1,6.73,15.1,15.77,15.1S1441.52,255,1441.52,246.19Z"/><path class="cls-4" d="M1500,267.68l-.06-28.49-14.74,23.58h-3.72l-14.74-23.21v28.12h-7.94v-43h6.85l17.82,28.48,17.49-28.48h6.86l.07,43Z"/></g><path class="cls-3" d="M686.92,140.64c-22,49.94-15.43,35.09-34.33,78.05H639.15l41.38-91.37h12.92L735,218.69H721.25C701.92,174.76,709.32,191.5,686.92,140.64Z"/><path class="cls-3" d="M807.86,153.43v56.4q0,17.11-8.5,25.3T774,243.32a60.74,60.74,0,0,1-17.6-2.52,34.94,34.94,0,0,1-13.55-7.21l5.66-9.11a33.47,33.47,0,0,0,11.27,6.22A42.74,42.74,0,0,0,773.62,233q11.46,0,16.94-5.41t5.47-16.5v-5.17a26.15,26.15,0,0,1-10.28,7.57A34.26,34.26,0,0,1,772.52,216a35.68,35.68,0,0,1-16.94-4,29.77,29.77,0,0,1-11.88-11.21,33.49,33.49,0,0,1,0-32.87,29.36,29.36,0,0,1,11.88-11.15,36.12,36.12,0,0,1,16.94-3.94,34.54,34.54,0,0,1,13.73,2.71,25.55,25.55,0,0,1,10.4,8V153.43Zm-34,52.21a24.23,24.23,0,0,0,11.51-2.71,20.08,20.08,0,0,0,8-7.57,21.17,21.17,0,0,0,2.89-11q0-9.48-6.28-15.33t-16.13-5.85q-10,0-16.25,5.85t-6.28,15.33a21.17,21.17,0,0,0,2.89,11,20.12,20.12,0,0,0,8,7.57A24.56,24.56,0,0,0,773.87,205.64Z"/><rect class="cls-5" x="864.75" y="127.32" width="11.82" height="91.37"/><path class="cls-3" d="M958.09,186.43a32.6,32.6,0,0,1-.25,3.57h-53a20.49,20.49,0,0,0,7.58,13.85q6.46,5.24,16.07,5.24,11.69,0,18.84-7.88l6.52,7.63a28.47,28.47,0,0,1-11,7.88,41.54,41.54,0,0,1-33.06-1.54,30.3,30.3,0,0,1-12.38-11.88,34.12,34.12,0,0,1-4.37-17.24,34.64,34.64,0,0,1,4.25-17.12A30.38,30.38,0,0,1,909,157.06a33.33,33.33,0,0,1,16.81-4.25,32.64,32.64,0,0,1,16.68,4.25A29.77,29.77,0,0,1,954,168.94a36.1,36.1,0,0,1,4.13,17.49Zm-32.26-23.64A20.39,20.39,0,0,0,911.61,168a20.84,20.84,0,0,0-6.72,13.54h41.87A20.94,20.94,0,0,0,940.05,168,20.29,20.29,0,0,0,925.83,162.79Z"/><path class="cls-3" d="M830.4,153.43h11.82v65.26H830.4V169.3c0-7.8-5.39-9-12.41-12.83a1.57,1.57,0,0,1-.81-1.84,1.75,1.75,0,0,1,1.72-1.2Z"/><path class="cls-2" d="M819.14,128.86c-2.15-.91-1.65-1.52-1.63-1.52l23.22,0a1.56,1.56,0,0,1,1.07.42,1.58,1.58,0,0,1,.41,1.07v22.8a1.31,1.31,0,0,1-1-.59,37.22,37.22,0,0,0-5.37-9.53l1.41-6.37a.64.64,0,0,0-.19.18l-.15.21c-.55.89-1.37,3.67-1.91,5a37.42,37.42,0,0,0-5.65-5.46c.26-.11.53-.21.75-.32.65-.33,1.23-.65,1.88-1l4-1.91a10.34,10.34,0,0,0-2.35.71l-2.23.57c-.71.19-2.09.54-3.43.85A39.2,39.2,0,0,0,819.14,128.86Z"/><path class="cls-3" d="M690.55,187.42c-2.95-1.27-2.26-2.1-2.24-2.1l28.85,0a2,2,0,0,1,2.05,2.05l3.08,31.35a1.74,1.74,0,0,1-1.39-.81C716,205,703.61,192.15,690.55,187.42Z"/><polygon class="cls-3" points="377.23 141.55 377.23 173.4 423.04 173.4 423.04 184.63 377.23 184.63 377.23 221.56 364.18 221.56 364.18 130.19 428.65 130.19 428.65 141.55 377.23 141.55"/><rect class="cls-5" x="440.64" y="130.19" width="11.82" height="91.37"/><path class="cls-3" d="M532.76,156.3l-31.65,71.79q-4.19,10-9.79,14a22.35,22.35,0,0,1-13.49,4.06,28.33,28.33,0,0,1-9.29-1.54,19,19,0,0,1-7.45-4.49l5.05-8.87a16.45,16.45,0,0,0,11.69,4.81,11.35,11.35,0,0,0,7.21-2.28q2.9-2.28,5.23-7.82l2.1-4.56L463.55,156.3h12.32l22.77,52.21,22.54-52.21Z"/><path class="cls-6" d="M1215.49,202.8c-2.23-1.3-5.23-3-7.82-3.14a33.14,33.14,0,0,1-8.59-1.38c-.79-.28-.52.15-.85-.24,2.13-.89,4.21-1.86,6.22-2.93,6.61-3.52,14.06-9.66,8.33-17.83-3.8-5.43-13.15-10.42-19.71-9.95-5.89.42-11.5,6.19-12.9,11.55-1.28,4.88.37,9.25,3.64,13l-2.7.94a189.86,189.86,0,0,1-28.55,7c-3.35.6-6.73,1.2-10.14,1.71a80.79,80.79,0,0,0,23.95-41.62c2.36-10.72,2.63-23.61-6.53-32.21-1.87-1.76-10.35-7.12-12.75-5.26-8.54,6.58-12.59,17.09-15.09,27.34-2.88,11.83-3.84,24.17-4.35,36.43-.15,3.54-.32,7.09-.49,10.66a44.42,44.42,0,0,1-12.05,8.05A19,19,0,0,1,1112,206h0v0a20.61,20.61,0,0,1-1.4-3.77c-1.73-6.08-1.4-12.43-1.7-18.59-.18-3.59-13.48-6.58-13.47-6.37.48,9.67-.79,22.37,8.43,29.21,4.75,3.51,11.51,6.83,17.41,6.79a15.91,15.91,0,0,0,5.37-1c-.36,12.71-.23,25.48,1.51,38.06,1.57,11.29,4.57,23,12.8,31.87,1.56,1.68,10.82,7.23,12.83,5.29,20.57-19.93,14.85-59.63-8.75-78a189.76,189.76,0,0,0,24.56-3.61,171.16,171.16,0,0,0,24.76-6.31c8.31,4.26,18.23,6.54,24.17,6.28C1220,205.77,1215.52,202.81,1215.49,202.8Zm-61.56-67.14c1.14,6.59,0,13.75-1.43,19.63a76.35,76.35,0,0,1-10.63,24.55c.4-4.88.94-9.74,1.72-14.56C1145.25,155.14,1147.86,144.09,1153.93,135.66Zm-1.6,107.6c.87,10.86-1,22.1-6.65,31.07-3.47-8.73-4.53-18.63-5.13-27.25-.82-11.72-.34-23.35,0-35C1147.91,220.71,1151.51,233,1152.33,243.26Zm45-64.35a14.68,14.68,0,0,1,4-3.09,7.62,7.62,0,0,1-.84,5,18.15,18.15,0,0,1-7.11,6.83A14,14,0,0,1,1197.31,178.91Z"/><path class="cls-6" d="M1091.79,211.51c-1.73-.95-4.87-2.83-7-2.36-13.61,3-27.28,7.17-40.55,11.51a142.75,142.75,0,0,0-24.92,10.54c-.87-38.93-.34-77.86.61-116.77.08-3.21-11.7-5.93-11.71-5.55-1.08,43.23-1.67,86.48-.37,129.72.08,2.51,9.92,7,11.8,5.58,11.15-8.4,24-13.73,37.11-17.93,12.53-4,26.13-6.17,38.15-11.6C1096.35,214,1092.17,211.72,1091.79,211.51Z"/><path class="cls-6" d="M1125.55,124.77a7.51,7.51,0,0,0-3.61-.21c-.5.17-1,.32-1.52.47a3.51,3.51,0,0,0-1.18.15l-2.09.7c-3.62.82-7.32,1.34-11,1.88-5.48.8-10.92,1.79-16.36,2.75-11.19,2-22.48,3.82-33.94,3.44-1.1,0-1,.21-.38.73.78.67,3,.84,3.92.87,11.92.42,23.62-1.3,35.28-3.34,2.91-.51,5.82-1,8.74-1.52q-8.87,3.24-17.55,6.85c-2.56,1.08-5.11,2.19-7.65,3.31-1.33.59-2.75,1.12-4,1.81q-.43.24-.84.51c-.39.12-.4.26,0,.4s.37.26-.06.07c-.22-.07-.45-.16-.67-.25-4.13-1.66-7.81-4.33-11.53-6.71a9.67,9.67,0,0,0-4.38-1c-.46,0-2.43-.08-1.31.64,4.32,2.76,8.59,5.75,13.48,7.52a25.38,25.38,0,0,0,7.59,1.58c2.78.1,5.51-2,7.95-3.07,10.69-4.74,21.74-8.57,32.66-12.74-1.36,1.42-2.71,2.87-4,4.34a5.6,5.6,0,0,0-3.15-.14c-4.82,2.05-9.14,5.16-13.62,7.8-3.7,2.18-8,5.5-12.36,6.27-1,.17-.06.63.37.84a8.43,8.43,0,0,0,2.39.65,1.69,1.69,0,0,0-1,.1,60.75,60.75,0,0,0-5.53,4.35c-.35-2.31-1-4.58-1.5-6.9-.26-1.23-5.46-1.18-5.42-1,.82,3.92,2.27,7.7,2.84,11.67.1.74,4.18,1.28,4.23.77a14.7,14.7,0,0,0,.08-2.29c.5.14.94.25,1,.26.69.13,2.36.57,2.91,0,1.91-2.1,4.59-3.54,6.27-5.83a10,10,0,0,0-3.45-1.07c.38.05.75.08,1.1.11a10.77,10.77,0,0,1,6.91,3.08,5.59,5.59,0,0,0,2.92,1c-.23.38-.47.76-.69,1.15s4.87,2,5.65,1c8.37-10.09,16-20.57,25.3-29.92C1128.54,125.57,1125.6,124.78,1125.55,124.77Zm-26.38,26.91a21.93,21.93,0,0,0-7.28-2.88c3.44-1.22,6.64-3.49,9.68-5.26,2-1.19,4.12-2.35,6.19-3.56A124.4,124.4,0,0,0,1099.17,151.68Z"/><path class="cls-6" d="M618.41,201.62c-.91-.34-2.5-1-3.51-.56a25.74,25.74,0,0,1-3.95,1.42,18.22,18.22,0,0,0,5.36-11.2c.31-4.57-2.24-6.31-6.27-6.86-4.47-.61-7.45,3.05-8.61,7.34-1.3,4.82,0,8.11,2.46,10.14a18.15,18.15,0,0,1-3.59,2.5c-.17.1-1.6.7-2.67,1.08-.1-.18-.22-.35-.31-.54a22,22,0,0,1-1.46-5.3c-.71-3.15-1.55-6.1-4.34-7.8a13.5,13.5,0,0,0-1.38-.72,62.29,62.29,0,0,0,3.5-11.44c.84-4.09,1.49-9.59-1.59-12.72-2.43-2.47-8.2-4.6-11.35-2.34-3.58,2.58-5.19,17.62-5.19,17.62a77.88,77.88,0,0,0,1,20,38.19,38.19,0,0,1-7.09,6.15,18.3,18.3,0,0,1-5.11,2.52c-.24.06-.64.07-1,.11-.39-.67-1.37-1.64-1.63-2.24-2.84-6.48-1-14.76.71-21.44h0a48.27,48.27,0,0,0,7.41-2.32,10.74,10.74,0,0,0,3.55-3.12c.18-.22,1.77-2.27.92-2.18a70.48,70.48,0,0,0-10.3,2.09,102.69,102.69,0,0,0,3.8-15.78c.15-1.14-5.46-2.23-5.54-1.59-.93,6.63-3.17,13-5,19.39-.72.23-1.44.46-2.14.7a10.57,10.57,0,0,0-4,3.2c-.22.25-2.11,3-1.33,2.77a63.78,63.78,0,0,1,6.17-1.69c-1.44,6.2-2.83,14.88,1,20.27,2.41,3.39,7.71,4.72,11.61,4,3.54-.61,6.82-2.8,9.68-5.28,1.32.81,5.13,1.73,5.28,1,.65-3,1.09-6,1.9-9v0a46,46,0,0,0,3.46-6,15.06,15.06,0,0,1,.92,2.75c.43,1.7.67,3.48,1.18,5.16,1,3.19,2.89,4.6,5.91,5.45,4.17,1.16,8.61-.28,12.2-3.11a19.45,19.45,0,0,0,11-1.27C620.83,202.59,618.54,201.67,618.41,201.62Zm-30.49-22.76-1.64,5.69c-.64,1.94-1.37,3.9-2.19,5.8l-.33.14a7.21,7.21,0,0,0-2.84,3.18,96.9,96.9,0,0,1,1.72-20.06,15.72,15.72,0,0,1,2.14-5.56,6.4,6.4,0,0,1,2-2l.07-.07a5.66,5.66,0,0,1,.82,1.06C589.75,170.35,588.82,175.22,587.92,178.86Zm22.33,12.78a18.21,18.21,0,0,1-3.43,7.12,13.12,13.12,0,0,1,.4-5.34,14.18,14.18,0,0,1,1.49-3.6,7.71,7.71,0,0,1,1.83-1.86A12.61,12.61,0,0,1,610.25,191.64Z"/></g></svg>