<svg id="Layer_1" data-name="Layer 1" xmlns="http://www.w3.org/2000/svg" viewBox="0 0 966.09 370.64"><defs><style>.cls-1{fill:#949699;}.cls-1,.cls-2,.cls-3{fill-rule:evenodd;}.cls-2,.cls-9{fill:#529644;}.cls-3,.cls-5,.cls-6,.cls-7,.cls-8{fill:#0e1f17;}.cls-4,.cls-5,.cls-6,.cls-7{isolation:isolate;}.cls-5,.cls-6,.cls-7{font-size:30.63px;font-family:Montserrat-SemiBold, Montserrat;font-weight:600;}.cls-5{letter-spacing:-0.01em;}.cls-7{letter-spacing:-0.02em;}</style></defs><g id="Layer_2" data-name="Layer 2"><path class="cls-1" d="M245.36,208.3a3.66,3.66,0,0,1-1.89-4.3,4.08,4.08,0,0,1,4-2.81h57c4.65,0,4.16,1.3,4.17,4.17v57l-1.21,7.82-1,.49-3.28-4.56c-2.26.49-8.4-9.3-8.73-11.24-.25-.73-.49-1.47-.77-2.2s-6.15-11.06-6.25-11.18c-10.19-13.78-21.14-21.79-42-33.16Zm55.25,46c0-.42-.56-6.76-.6-7.15l.12-8.48c.06-1.4,1.5-8,1.87-9.92.9-4.72,1.86-10.61,2.36-15.44l.38-5.56c.27-.23,2.14-1.16.52-1.46-1-.18-8.57.21-9.75.29-3.17.23-19.23,1.67-22.13,1.37-1.66-.18-1.64.2-3.06.39l-4.59.39c-1.13.07-.73.18-1.38.35-1.6.43-5.21-.23-5.66,1.15l5.21.49c1.41,1.87.18-.27,3.23,2.13a24.24,24.24,0,0,1,2.9,2.45c3.13,3.37,3.25,4.94,4.49,6.19,2.45-.25,5.27-1.49,7.63-2.12l3.78-1a18.62,18.62,0,0,1,4-1.2l-6.7,3.23c-1.11.53-2.07,1.06-3.18,1.61s-2.67.92-2.94,2l.4.12h.1v1.14c.52.28,1.15.44,1.6.75a16.4,16.4,0,0,1,3.55,3.7,19.44,19.44,0,0,0,3.27,3.8c1,1,.08.85.74,1.72l1.38-3c.9-1.88,2.43-7.19,3.43-8.8a1.33,1.33,0,0,1,.25-.35,1,1,0,0,1,.32-.31l-2.82,12.73a.16.16,0,0,1-.05.14c-.13.39-.27,0-.11.84,3.67-.62,7.2,4.49,8.11,6.76.76,1.9-.37.08,1.05,2a4.06,4.06,0,0,1,.87,2.18v1c.52.43,1.07,5.73,1.41,6Z"/><path class="cls-2" d="M224.58,105.63c-7.82-3.35-6-5.55-5.94-5.55l84.58-.08a5.24,5.24,0,0,1,5.42,5v83.44c-2.35-.33-2.67-1.05-3.68-2.15a134.73,134.73,0,0,0-19.58-34.7l5.15-23.22a2.1,2.1,0,0,0-.7.66,8,8,0,0,0-.53.76c-2,3.24-5,13.39-7,18A136.76,136.76,0,0,0,261.75,128c.93-.41,1.9-.78,2.73-1.19,2.37-1.19,4.45-2.34,6.84-3.46l14.41-7c-3.77.35-7.14,2.28-8.53,2.58l-8.14,2.1c-2.59.7-7.6,2-12.48,3.09C246.85,117.28,236,109.76,224.58,105.63Z"/><path class="cls-3" d="M122.51,166.57c5.1,4.16,12,7.67,17.11,12,6.94,6,15,12.09,21.57,18.46,3.31,3.24,7.12,6.87,10.12,10.38,8.68,10.12,13.89,17.78,22.6,27.91l1.9,2.27c7.32,8.68,10.44,19.07,20,29.19.47.5,2.82,3.85,3.44,3.89,1.82-1.05,6.24-6.45,6.24-9.69V187.87a22.1,22.1,0,0,0-1.88-4c-.4-.81-1.19-3.29-1.93-3.55-1.27.52-1.9,2.85-2.1,4a17.49,17.49,0,0,0-.36,6.12c.79,11.08.9,22.3.86,33.4-.05,9.1.52,14.68-1,23.55-.15.75-.37,1.65-.63,2.58-.22-.39-.44-.74-.61-1a27,27,0,0,0-2.22-3.73c-.56-.86-1.16-1.72-1.75-2.57L211.26,239c-3.63-5.48-10-9.49-14.9-14a15.83,15.83,0,0,1-1.29-1,12.28,12.28,0,0,1,.06-2.27c.35-1.38-.1-4.09,0-5.53,0-3.26,7.17-20.71,6.54-24.94,0,.19-10.35,15.95-13,21.81-1.82-3.64-.75-3.21-5.87-7.57a43.06,43.06,0,0,0-5.14-3.65l-.23-.12a7.57,7.57,0,0,0-1.8-.84c-3.15-2.81-7.2-4.1-8.39-6.68,8.09-4.46,25.17-15.17,31.89-20.69-2.19.53-14,5.48-15.19,6-2.22,1-13,5-19.8,8.25a14.54,14.54,0,0,0-1.48-1.84s-.19-.19-.28-.3c-.77-.82-1.55-1.64-2.34-2.45,0-1.57-9.32-6.29-10.39-7.71-4.07-5.23-18.43-18.66-26.53-19,16.85.87,29.06,0,46.14.26,7.32.11,14.64.25,22,.38l17.34.5c2.55-.38,12.16-1.77,13.53-3.36-1.74-2.81-14.48-3-17.09-3.09H105c-4.81,0-6.09,1.11-4.94,2.51C103.57,157.91,117.36,162.42,122.51,166.57Z"/></g><g id="Layer_3" data-name="Layer 3"><g id="Tagline" class="cls-4"><text class="cls-5" transform="translate(362.39 260.59) scale(0.9 1)">P</text><text class="cls-6" transform="translate(382.1 260.59) scale(0.9 1)">ROFESSIONAL SER</text><text class="cls-7" transform="translate(650.96 260.59) scale(0.9 1)">V</text><text class="cls-6" transform="translate(670.62 260.59) scale(0.9 1)">ICES </text><text class="cls-7" transform="translate(742.79 260.59) scale(0.9 1)">B</text><text class="cls-6" transform="translate(763.34 260.59) scale(0.9 1)">Y GIOM</text></g><path class="cls-3" d="M594.47,123.52c-21.92,50-15.38,35.12-34.22,78.11H546.8l41.25-91.43H601l41.63,91.31h-13.7C609.52,157.63,616.94,174.36,594.47,123.52Z"/><path class="cls-3" d="M715.42,136.14l.08,56.4q0,17.11-8.46,25.32t-25.36,8.22a60.32,60.32,0,0,1-17.61-2.5,34.92,34.92,0,0,1-13.55-7.18l5.65-9.12a33.44,33.44,0,0,0,11.27,6.2,43,0,0,0,13.86,2.26q11.44,0,16.92-5.44t5.46-16.51v-5.17a26,26,0,0,1-10.27,7.58,34.28,34.28,0,0,1-13.23,2.55,35.64,35.64,0,0,1-16.94-4,29.81,29.81,0,0,1-11.9-11.19,33.52,33.52,0,0,1-.05-32.88,29.46,29.46,0,0,1,11.87-11.16,36.23,36.23,0,0,1,16.93-4,34.62,34.62,0,0,1,13.73,2.69,25.55,25.55,0,0,1,10.42,8v-10.1h11.21ZM681.51,188.4A24.17,24.17,0,0,0,693,185.68a20,20,0,0,0,8-7.59,21.12,21.12,0,0,0,2.88-11q0-9.5-6.3-15.33t-16.14-5.82q-10,0-16.25,5.87t-6.26,15.34a21.25,21.25,0,0,0,2.91,11,20.07,20.07,0,0,0,8,7.56A24.41,24.41,0,0,0,681.51,188.4Z"/><rect class="cls-8" x="772.34" y="109.97" width="11.82" height="91.37" transform="translate(-0.22 1.09) rotate(-0.08)"/><path class="cls-3" d="M865.7,168.93a35.67,35.67,0,0,1-.24,3.57l-53,.08a20.53,20.53,0,0,0,7.59,13.84q6.48,5.22,16.08,5.21,11.7,0,18.83-7.91l6.54,7.63a28.63,28.63,0,0,1-11,7.89,41.43,41.43,0,0,1-33.07-1.49A30.31,30.31,0,0,1,805,185.89a36.36,36.36,0,0,1-.17-34.36,30.37,30.37,0,0,1,11.68-11.9,33.35,33.35,0,0,1,16.8-4.27A32.72,32.72,0,0,1,850,139.58a29.9,29.9,0,0,1,11.47,11.87,36.19,36.19,0,0,1,4.15,17.48Zm-32.3-23.6a20.42,20.42,0,0,0-14.21,5.2,20.85,20.85,0,0,0-6.69,13.55l41.86-.06a20.89,20.89,0,0,0-6.73-13.47,20.32,20.32,0,0,0-14.23-5.22Z"/><path class="cls-3" d="M738,136.11h11.82l.09,65.27H738.05L738,152c0-7.8-5.4-9-12.42-12.82a1.54,1.54,0,0,1-.81-1.84,1.74,1.74,0,0,1,1.72-1.2Z"/><path class="cls-2" d="M726.67,111.56C724.52,110.65,725,110,725,110l23.21,0a1.57,1.57,0,0,1,1.07.42,1.54,1.54,0,0,1,.42,1.06v22.8a1.27,1.27,0,0,1-1-.58,37.14,37.14,0,0,0-5.38-9.52l1.4-6.38c-.14.11-.06,0-.19.19a1.48,1.48,0,0,1-.15.2c-.55.89-1.37,3.68-1.9,5a37.4,37.4,0,0,0-5.66-5.45l.75-.33c.65-.33,1.22-.64,1.88-1l4-1.92a11.28,11.28,0,0,0-2.34.71l-2.23.58c-.71.19-2.09.54-3.43.86A39,39,0,0,0,726.67,111.56Z"/><path class="cls-3" d="M598.17,170.3c-3-1.26-2.28-2.09-2.25-2.09l28.85-.07a2,2,0,0,1,2.05,2v0l3.12,31.35a1.76,1.76,0,0,1-1.39-.81C623.61,187.85,611.23,175,598.17,170.3Z"/><polygon class="cls-2" points="377.39 121.87 377.44 153.72 423.25 153.66 423.27 164.88 377.45 164.95 377.51 201.89 364.45 201.91 364.32 110.53 428.8 110.44 428.82 121.8 377.39 121.87"/><rect class="cls-9" x="440.86" y="110.43" width="11.82" height="91.37" transform="translate(-0.22 0.62) rotate(-0.08)"/><path class="cls-2" d="M532.94,136.4,501.4,208.24q-4.18,10-9.77,14a22.47,22.47,0,0,1-13.48,4.08,28.55,28.55,0,0,1-9.3-1.52,19.09,19.09,0,0,1-7.46-4.49l5-8.87a16.44,16.44,0,0,0,11.7,4.78,11.26,11.26,0,0,0,7.2-2.28c1.93-1.52,3.67-4.14,5.23-7.83l2.08-4.56-28.9-65.1H476l22.85,52.18,22.47-52.24Z"/></g></svg>