<svg xmlns="http://www.w3.org/2000/svg" viewBox="0 0 497.04 239.98"><defs><style>.cls-1{font-size:30.02px;font-family:Montserrat-SemiBold, Montserrat;font-weight:600;}.cls-1,.cls-7{fill:#949699;}.cls-2{letter-spacing:-0.01em;}.cls-3{letter-spacing:0em;}.cls-4{letter-spacing:-0.01em;}.cls-5{fill:#519646;}.cls-5,.cls-6,.cls-7{fill-rule:evenodd;}.cls-6{fill:#fff;}</style></defs><g id="Fly_Agile" data-name="Fly Agile"><text id="_.blog" data-name=".blog" class="cls-1" transform="translate(231.2 161.85) scale(0.94 1)"><tspan class="cls-2">A</tspan><tspan class="cls-3" x="22.18" y="0">GILE </tspan><tspan class="cls-4" x="101.3" y="0">C</tspan><tspan class="cls-2" x="122.67" y="0">OA</tspan><tspan x="169.83" y="0">CH</tspan></text></g><g id="Mark"><path class="cls-5" d="M292.5,81.26c-1.18-.51-.91-.84-.9-.84h12.8a.8.8,0,0,1,.83.82V93.8a.72.72,0,0,1-.56-.32,20.34,20.34,0,0,0-3-5.26l.78-3.51c-.08.06,0,0-.1.1l-.08.11c-.31.49-.76,2-1.06,2.73a21.08,21.08,0,0,0-3.11-3,3.89,3.89,0,0,0,.41-.18c.36-.18.67-.35,1-.52l2.18-1a5.62,5.62,0,0,0-1.29.39l-1.24.32c-.39.1-1.15.29-1.89.46A21.42,21.42,0,0,0,292.5,81.26Z"/></g><g id="Giom"><path class="cls-6" d="M304.23,107.49v21.68c0,.78-.4,1.43-.88,1.43h-5.43c-.48,0-.87-.64-.87-1.43V105a33.13,33.13,0,0,0-6.06-4,.76.76,0,0,1-.39-.9.85.85,0,0,1,.84-.59h11.91a.92.92,0,0,1,.63.25,1,1,0,0,1,.25.63v7.1Z"/><path class="cls-6" d="M349.15,110.83c0-8.28-6.08-14.78-15.32-14.78s-15.32,6.44-15.32,14.78c0,8.19,6.21,14.31,15.23,14.31s15.36-6.07,15.41-14.31Zm-37.82,0c0-12,9.24-20.81,22.41-20.81,13.33,0,22.5,8.63,22.5,20.81s-9.44,20.5-22.5,20.5S311.33,122.82,311.33,110.83Z"/><path class="cls-6" d="M364.21,91a.85.85,0,0,0-.87.81v38a.84.84,0,0,0,.87.8h5.43a.84.84,0,0,0,.88-.8V108.1a11.28,11.28,0,0,1,11.73-11.65c7.29,0,11.64,5.26,11.64,11.65v21.7a.85.85,0,0,0,.88.8h5.43a.84.84,0,0,0,.87-.8V108.1a11.35,11.35,0,0,1,11.82-11.65c7.28,0,11.2,5.19,11.2,11.49V129.8a.85.85,0,0,0,.88.8h5.43a.84.84,0,0,0,.87-.8V107.94c0-10.46-6.44-17.68-18.21-17.68-6.74,0-12.32,3-15.23,8.68h0c-2.28-5.9-7.94-8.68-14.53-8.68-5.27,0-10.29,2.09-12.78,6.51v-5a.85.85,0,0,0-.88-.81Z"/><path class="cls-6" d="M278.66,119.35V105a33.4,33.4,0,0,0-6.07-4,.76.76,0,0,1-.39-.9.85.85,0,0,1,.84-.59H285a.84.84,0,0,1,.87.88v9.41h0v12a.75.75,0,0,1-.24.55,32.25,32.25,0,0,1-23.48,9.33c-19.07,0-31.91-11-32-28.69,0-17.51,12.65-29.74,31.87-29.74a33.57,33.57,0,0,1,21.89,7.91.76.76,0,0,1,.07,1.11l-3.25,3.45a.92.92,0,0,1-1.24.08,28.74,28.74,0,0,0-17.47-6c-14.82,0-24.34,9.9-24.34,23.22s10,22.1,24.51,22.1A25.89,25.89,0,0,0,278.66,119.35Z"/></g><g id="Logo_Icon" data-name="Logo Icon"><path class="cls-5" d="M146.71,68c-5.1-2.19-3.92-3.62-3.87-3.62L198,64.3a3.41,3.41,0,0,1,3.53,3.54v54.21a3,3,0,0,1-2.39-1.39A88.1,88.1,0,0,0,186.4,98l3.35-15.16a1.41,1.41,0,0,0-.45.43c-.06.08-.29.4-.35.5-1.31,2.11-3.26,8.74-4.55,11.76a88.59,88.59,0,0,0-13.43-13c.61-.26,1.25-.51,1.78-.78,1.55-.77,2.91-1.52,4.47-2.25L186.63,75c-2.46.22-4.66,1.48-5.58,1.68l-5.3,1.37c-1.69.45-5,1.28-8.15,2C161.25,75.58,154.15,70.67,146.71,68Z"/></g><g id="Logo_Icon-2" data-name="Logo Icon"><path class="cls-6" d="M80.1,107.75c3.33,2.71,7.86,5,11.16,7.81,4.54,3.9,9.79,7.89,14.08,12,2.17,2.12,4.65,4.49,6.61,6.78,5.67,6.6,9.06,11.6,14.74,18.21l1.25,1.48c4.77,5.67,6.81,12.45,13.07,19.06.3.32,1.84,2.5,2.25,2.53,1.19-.68,4.07-4.21,4.07-6.32v-47.7A15.08,15.08,0,0,0,146.1,119c-.26-.52-.78-2.14-1.26-2.32-.83.35-1.24,1.87-1.37,2.61a11.44,11.44,0,0,0-.24,4c.52,7.23.6,14.55.57,21.8,0,5.94.34,9.58-.65,15.36-.1.5-.24,1.08-.41,1.69-.14-.25-.29-.48-.4-.67a18.25,18.25,0,0,0-1.44-2.43c-.37-.56-.76-1.13-1.15-1.68-.57-.79-1.13-1.59-1.7-2.39-2.37-3.57-6.53-6.19-9.73-9.16a10.33,10.33,0,0,1-.84-.68,7.34,7.34,0,0,1,0-1.48,22.93,22.93,0,0,0,0-3.61c0-2.12,4.67-13.52,4.27-16.28,0,.13-6.77,10.41-8.51,14.24-1.19-2.38-.49-2.1-3.83-4.95a30.42,30.42,0,0,0-3.36-2.38l-.15-.08a5.37,5.37,0,0,0-1.17-.54c-2.06-1.84-4.7-2.68-5.48-4.36,5.28-2.92,16.43-9.9,20.82-13.5-1.44.34-9.18,3.57-9.92,3.92-1.44.67-8.49,3.24-12.92,5.39a9.22,9.22,0,0,0-1-1.2l-.18-.2c-.5-.53-1-1.07-1.53-1.6,0-1-6.08-4.1-6.78-5-2.65-3.41-12-12.18-17.31-12.39,11,.57,19,0,30.11.17l14.33.25,11.32.33c1.66-.25,7.94-1.16,8.83-2.2-1.13-1.83-9.45-2-11.16-2H68.63c-3.14,0-4,.72-3.22,1.64C67.74,102.1,76.74,105,80.1,107.75Z"/></g><g id="Logo_Icon-3" data-name="Logo Icon"><path class="cls-7" d="M160.28,135a2.4,2.4,0,0,1-1.24-2.81,2.68,2.68,0,0,1,2.63-1.83h37.18c3,0,2.72.84,2.72,2.72v37.18l-.79,5.1-.67.32-2.15-3c-1.47.33-5.48-6.07-5.69-7.33-.16-.48-.32-1-.5-1.44s-4-7.21-4.08-7.29c-6.65-9-13.8-14.22-27.41-21.64Zm36.05,30c0-.28-.36-4.41-.39-4.67l.08-5.53c0-.92,1-5.22,1.22-6.48.59-3.08,1.22-6.92,1.54-10.07l.25-3.64c.18-.14,1.4-.75.34-.95-.66-.11-5.59.14-6.36.19-2.07.15-12.55,1.09-14.45.89-1.08-.11-1.07.14-2,.26l-3,.26c-.74,0-.48.11-.9.22-1,.28-3.4-.15-3.69.75l3.4.33c.91,1.22.11-.18,2.11,1.38a17.68,17.68,0,0,1,1.89,1.6c2,2.21,2.12,3.23,2.93,4.05a36.47,36.47,0,0,0,5-1.39l2.47-.64a11.77,11.77,0,0,1,2.58-.78L185,142.92c-.72.34-1.35.69-2.07,1.05s-1.74.6-1.92,1.27l.26.07.06,0v.74c.33.18.75.29,1,.49a10.66,10.66,0,0,1,2.32,2.42,12.73,12.73,0,0,0,2.13,2.48c.67.64,0,.55.48,1.12l.91-2c.58-1.23,1.58-4.69,2.23-5.74l.16-.23a.79.79,0,0,1,.21-.2L189,152.77l0,.09c-.08.25-.18,0-.07.54,2.4-.4,4.7,2.93,5.29,4.41.5,1.24-.24.06.69,1.32a2.73,2.73,0,0,1,.57,1.43c0,.24,0,.47,0,.67C195.75,161.42,196.11,164.88,196.33,165Z"/></g></svg>