<svg xmlns="http://www.w3.org/2000/svg" viewBox="0 0 745.58 425.88"><defs><style>.cls-1,.cls-2{fill:#fff;}.cls-1,.cls-3,.cls-5{fill-rule:evenodd;}.cls-3,.cls-4{fill:#529645;}.cls-5{fill:#949699;}</style></defs><g id="Layer_2" data-name="Layer 2"><path class="cls-1" d="M411.42,228.05c-16.95,38.5-11.9,27.06-26.47,60.18H374.59l31.9-70.44h10l32,70.44H437.89C423,254.36,428.68,267.27,411.42,228.05Z"/><path class="cls-1" d="M504.65,237.91v43.48q0,13.2-6.55,19.51t-19.55,6.32a46.69,46.69,0,0,1-13.58-2,26.88,26.88,0,0,1-10.44-5.56l4.36-7a25.76,25.76,0,0,0,8.69,4.79,33,33,0,0,0,10.68,1.76q8.83,0,13.06-4.18t4.22-12.72v-4a20,20,0,0,1-7.93,5.84,26.33,26.33,0,0,1-10.2,1.95,27.52,27.52,0,0,1-13.06-3.09,22.9,22.9,0,0,1-9.16-8.64,25.84,25.84,0,0,1,0-25.34,22.73,22.73,0,0,1,9.16-8.6,28,28,0,0,1,13.06-3A26.5,26.5,0,0,1,488,239.53a19.57,19.57,0,0,1,8,6.17v-7.79Zm-26.2,40.26a18.71,18.71,0,0,0,8.88-2.09,15.5,15.5,0,0,0,6.17-5.84,16.27,16.27,0,0,0,2.23-8.5,15.4,15.4,0,0,0-4.84-11.82,17.52,17.52,0,0,0-12.44-4.51q-7.69,0-12.53,4.51a15.4,15.4,0,0,0-4.84,11.82,16.27,16.27,0,0,0,2.23,8.5,15.5,15.5,0,0,0,6.17,5.84A18.9,18.9,0,0,0,478.45,278.17Z"/><rect class="cls-2" x="548.51" y="217.79" width="9.12" height="70.44"/><path class="cls-1" d="M620.48,263.35c0,.7-.07,1.62-.19,2.76H579.47a15.76,15.76,0,0,0,5.83,10.68,19.08,19.08,0,0,0,12.39,4q9,0,14.53-6.07l5,5.88a22,22,0,0,1-8.5,6.08,32,32,0,0,1-25.49-1.19,23.34,23.34,0,0,1-9.54-9.16,26.21,26.21,0,0,1-3.37-13.29,26.65,26.65,0,0,1,3.28-13.2,23.5,23.5,0,0,1,9-9.16,25.67,25.67,0,0,1,13-3.27,25.24,25.24,0,0,1,12.87,3.27,23.1,23.1,0,0,1,8.83,9.16,27.93,27.93,0,0,1,3.18,13.48ZM595.6,245.13a15.74,15.74,0,0,0-11,4,16,16,0,0,0-5.17,10.44h32.27a16.17,16.17,0,0,0-5.17-10.4A15.64,15.64,0,0,0,595.6,245.13Z"/><path class="cls-1" d="M522,237.91h9.11v50.32H522V250.15c0-6-4.15-6.94-9.56-9.89a1.21,1.21,0,0,1-.63-1.42,1.35,1.35,0,0,1,1.33-.93Z"/><path class="cls-3" d="M513.35,219c-1.65-.71-1.27-1.18-1.25-1.18l17.89,0a1.2,1.2,0,0,1,.83.33,1.18,1.18,0,0,1,.32.82v17.58a1,1,0,0,1-.78-.45,28.25,28.25,0,0,0-4.14-7.35l1.09-4.91c-.11.08,0,0-.15.14l-.11.16c-.43.68-1.06,2.83-1.48,3.81a28.79,28.79,0,0,0-4.35-4.2l.58-.25c.5-.26.94-.5,1.44-.74l3-1.47a7.82,7.82,0,0,0-1.8.55l-1.72.44c-.55.15-1.61.42-2.65.66A29.65,29.65,0,0,0,513.35,219Z"/><path class="cls-1" d="M414.22,264.12c-2.28-1-1.75-1.62-1.73-1.62l22.24,0a1.51,1.51,0,0,1,1.58,1.58l2.37,24.17a1.39,1.39,0,0,1-1.07-.62C433.82,277.68,424.28,267.76,414.22,264.12Z"/><polygon class="cls-3" points="390.66 131.45 390.66 156.88 427.24 156.88 427.24 165.84 390.66 165.84 390.66 195.33 380.24 195.33 380.24 122.38 431.72 122.38 431.72 131.45 390.66 131.45"/><rect class="cls-4" x="441.29" y="122.38" width="9.44" height="72.95"/><path class="cls-3" d="M514.83,143.22l-25.27,57.32q-3.35,8-7.82,11.21A17.82,17.82,0,0,1,471,215a22.74,22.74,0,0,1-7.42-1.23,15.17,15.17,0,0,1-5.95-3.59l4-7.08a13.14,13.14,0,0,0,9.34,3.84,9,9,0,0,0,5.75-1.82,15.53,15.53,0,0,0,4.18-6.24l1.67-3.64-23-52h9.83l18.18,41.69,18-41.69Z"/><path class="cls-5" d="M270.86,230.66a3.66,3.66,0,0,1-1.89-4.3,4.08,4.08,0,0,1,4-2.81h57c4.66,0,4.17,1.3,4.18,4.17v57l-1.21,7.82-1,.49-3.28-4.56c-2.26.5-8.4-9.3-8.73-11.24-.25-.73-.49-1.47-.77-2.2s-6.15-11.06-6.25-11.17c-10.19-13.79-21.14-21.8-42-33.17Zm55.25,46c0-.43-.56-6.77-.6-7.16l.11-8.48c.07-1.4,1.51-8,1.88-9.92.9-4.72,1.86-10.61,2.36-15.44l.38-5.56c.27-.23,2.14-1.16.52-1.46-1-.18-8.57.21-9.75.29-3.17.23-19.23,1.67-22.14,1.37-1.65-.17-1.63.2-3.05.39l-4.59.39c-1.13.07-.73.18-1.38.35-1.6.43-5.21-.23-5.66,1.15l5.21.49c1.4,1.87.18-.26,3.23,2.13a25.13,25.13,0,0,1,2.9,2.45c3.13,3.38,3.25,4.94,4.49,6.2,2.45-.25,5.27-1.49,7.63-2.13l3.78-1a18.34,18.34,0,0,1,4-1.2l-6.7,3.24c-1.11.52-2.08,1.05-3.18,1.6s-2.67.92-2.94,2l.4.12.1,0v1.14c.52.28,1.15.44,1.6.75a16.41,16.41,0,0,1,3.55,3.7,19.38,19.38,0,0,0,3.27,3.8c1,1,.08.85.74,1.72l1.38-3c.9-1.88,2.43-7.18,3.43-8.8,0-.06.2-.3.25-.35a1,1,0,0,1,.32-.31l-2.82,12.74a.69.69,0,0,0-.05.13c-.13.39-.27,0-.11.84,3.67-.62,7.2,4.49,8.11,6.76.76,1.9-.37.08,1.05,2a4.07,4.07,0,0,1,.87,2.19c0,.37,0,.72,0,1C325.22,271.17,325.77,276.47,326.11,276.7Z"/><path class="cls-3" d="M250.08,128c-7.82-3.35-6-5.55-5.94-5.55l84.58-.08a5.24,5.24,0,0,1,5.42,5.42v83.07c-2.35-.33-2.67-1-3.68-2.15A135,135,0,0,0,310.88,174L316,150.78a2.08,2.08,0,0,0-.7.66c-.09.11-.45.62-.53.76-2,3.24-5,13.39-7,18a135.87,135.87,0,0,0-20.59-19.88c.94-.41,1.91-.78,2.74-1.19,2.37-1.19,4.45-2.34,6.84-3.46l14.41-7c-3.77.35-7.14,2.28-8.53,2.59l-8.14,2.09c-2.59.7-7.6,2-12.48,3.09C272.35,139.64,261.47,132.12,250.08,128Z"/><path class="cls-1" d="M148,188.93c5.1,4.16,12.05,7.68,17.11,12,6.94,6,15,12.09,21.57,18.46,3.31,3.24,7.12,6.87,10.12,10.39,8.68,10.11,13.89,17.77,22.6,27.91.63.75,1.27,1.5,1.9,2.26,7.32,8.68,10.44,19.07,20,29.2.47.49,2.82,3.84,3.44,3.88,1.82-1.05,6.24-6.45,6.24-9.69V210.23a22.14,22.14,0,0,0-1.88-4c-.4-.81-1.19-3.29-1.93-3.55-1.27.52-1.9,2.85-2.1,4a17.49,17.49,0,0,0-.36,6.12c.79,11.08.9,22.3.86,33.41-.05,9.1.52,14.68-1,23.54-.15.75-.37,1.65-.63,2.58-.22-.39-.44-.74-.61-1a28,28,0,0,0-2.22-3.73c-.56-.86-1.16-1.72-1.75-2.57l-2.61-3.66c-3.63-5.47-10-9.49-14.9-14a13.46,13.46,0,0,1-1.29-1,11.38,11.38,0,0,1,.06-2.26c.35-1.39-.1-4.1,0-5.54,0-3.26,7.17-20.71,6.54-24.94,0,.19-10.35,16-13,21.82-1.82-3.65-.75-3.22-5.87-7.58a45.1,45.1,0,0,0-5.14-3.65l-.23-.12a7.75,7.75,0,0,0-1.8-.84c-3.15-2.81-7.2-4.1-8.39-6.68,8.09-4.46,25.17-15.17,31.89-20.69-2.19.53-14,5.48-15.19,6-2.22,1-13,5-19.8,8.26a12.92,12.92,0,0,0-1.48-1.84l-.28-.3q-1.15-1.24-2.34-2.46c0-1.57-9.32-6.29-10.39-7.71-4.07-5.23-18.43-18.66-26.53-19,16.85.87,29.06,0,46.14.26,7.32.11,14.64.25,22,.38l17.34.5c2.55-.38,12.16-1.77,13.53-3.36-1.74-2.81-14.48-3-17.09-3.09h-100c-4.81,0-6.09,1.11-4.94,2.51C129.07,180.27,142.86,184.78,148,188.93Z"/></g></svg>