<svg xmlns="http://www.w3.org/2000/svg" viewBox="0 0 2048 1152"><defs><style>.cls-1{fill:#0e1f17;}.cls-2,.cls-5{fill:#949699;}.cls-2,.cls-3,.cls-4{fill-rule:evenodd;}.cls-3,.cls-8{fill:#529644;}.cls-4,.cls-7{fill:#fff;}.cls-5{font-size:47.63px;font-family:Montserrat-Medium, Montserrat;font-weight:500;}.cls-6{font-size:70.32px;font-family:Montserrat-SemiBold, Montserrat;font-weight:600;}</style></defs><g id="Background"><rect id="Background_banner" data-name="Background banner" class="cls-1" width="2048" height="1152"/></g><g id="Layer_2" data-name="Layer 2"><path class="cls-2" d="M752.87,597.69a4.16,4.16,0,0,1-2.15-4.88,4.63,4.63,0,0,1,4.56-3.19H819.9c5.28,0,4.73,1.47,4.73,4.73V659l-1.38,8.86-1.17.56-3.72-5.18c-2.57.57-9.53-10.55-9.9-12.74-.28-.83-.56-1.67-.87-2.5s-7-12.54-7.09-12.67c-11.56-15.64-24-24.72-47.63-37.61Zm62.65,52.2c0-.48-.63-7.67-.68-8.11l.14-9.61c.07-1.59,1.7-9.06,2.12-11.26,1-5.35,2.12-12,2.68-17.51l.43-6.31c.3-.25,2.43-1.31.59-1.65-1.15-.21-9.72.23-11.06.33-3.6.26-21.81,1.89-25.1,1.55-1.88-.2-1.86.23-3.47.45l-5.2.44c-1.28.08-.83.2-1.57.39-1.81.49-5.9-.26-6.42,1.31l5.91.56c1.6,2.12.21-.31,3.67,2.41a29,29,0,0,1,3.28,2.77c3.56,3.84,3.7,5.61,5.1,7,2.77-.28,6-1.69,8.65-2.41l4.29-1.1a20.6,20.6,0,0,1,4.5-1.36l-7.6,3.66c-1.25.59-2.35,1.2-3.6,1.82s-3,1-3.34,2.21l.45.13.11,0V617c.58.32,1.3.51,1.81.86a18.23,18.23,0,0,1,4,4.19,22.37,22.37,0,0,0,3.7,4.31c1.18,1.12.09,1,.85,2l1.57-3.39c1-2.13,2.75-8.15,3.88-10,0-.07.23-.34.28-.4a1.23,1.23,0,0,1,.37-.35l-3.2,14.44a1.66,1.66,0,0,0-.06.16c-.14.44-.31,0-.12,1,4.16-.7,8.16,5.09,9.19,7.67.87,2.15-.42.09,1.2,2.29a4.68,4.68,0,0,1,1,2.48,11.2,11.2,0,0,1,0,1.16C814.51,643.63,815.14,649.64,815.52,649.89Z"/><path class="cls-3" d="M729.29,481.24c-8.87-3.79-6.81-6.29-6.73-6.29l95.92-.09a5.92,5.92,0,0,1,6.15,6.14v94.21c-2.66-.37-3-1.18-4.17-2.43a152.87,152.87,0,0,0-22.21-39.35l5.84-26.34a2.44,2.44,0,0,0-.79.75c-.1.12-.51.7-.61.86-2.28,3.67-5.67,15.18-7.9,20.45a154.61,154.61,0,0,0-23.34-22.55c1.06-.46,2.16-.88,3.09-1.35,2.7-1.35,5.06-2.65,7.76-3.92l16.36-7.89c-4.28.39-8.1,2.58-9.69,2.93l-9.22,2.37c-2.94.8-8.63,2.23-14.16,3.51C754.55,494.46,742.21,485.92,729.29,481.24Z"/><path class="cls-4" d="M613.53,550.35c5.79,4.72,13.67,8.71,19.41,13.58,7.87,6.78,17,13.71,24.46,20.94,3.76,3.67,8.08,7.79,11.48,11.78,9.85,11.46,15.76,20.16,25.63,31.65l2.16,2.57c8.3,9.85,11.84,21.63,22.72,33.11.52.56,3.2,4.36,3.9,4.41,2.06-1.19,7.08-7.32,7.08-11V574.51a25.47,25.47,0,0,0-2.14-4.58c-.45-.92-1.35-3.72-2.19-4-1.44.6-2.15,3.24-2.38,4.54a19.92,19.92,0,0,0-.41,6.93c.89,12.57,1,25.29,1,37.89-.06,10.32.59,16.65-1.12,26.7-.18.86-.42,1.88-.72,2.92-.25-.43-.5-.83-.69-1.15a31.65,31.65,0,0,0-2.52-4.23c-.64-1-1.32-2-2-2.91l-3-4.16c-4.11-6.2-11.34-10.76-16.9-15.91.16.16-.51-.41-1.46-1.19a13.46,13.46,0,0,1,.07-2.57c.4-1.57-.11-4.64,0-6.28,0-3.69,8.13-23.48,7.42-28.28-.06.22-11.75,18.09-14.79,24.74-2-4.14-.85-3.64-6.65-8.59a50.44,50.44,0,0,0-5.83-4.14l-.26-.14a9,9,0,0,0-2-1c-3.58-3.18-8.17-4.65-9.52-7.58,9.18-5.06,28.55-17.2,36.17-23.46-2.49.6-15.94,6.21-17.23,6.82-2.51,1.17-14.76,5.63-22.46,9.37a15.77,15.77,0,0,0-1.67-2.09s-.22-.22-.32-.34c-.87-.93-1.76-1.86-2.65-2.78-.06-1.78-10.57-7.14-11.78-8.74-4.62-5.94-20.91-21.17-30.1-21.53,19.12,1,33,0,52.33.29,8.31.13,16.61.29,24.91.43l19.66.57c2.89-.43,13.8-2,15.35-3.81-2-3.19-16.42-3.46-19.39-3.51H593.6c-5.45,0-6.9,1.26-5.59,2.85C592.05,540.54,607.69,545.65,613.53,550.35Z"/></g><g id="Layer_3" data-name="Layer 3"><text id="with_Giom_big" data-name="with Giom big" class="cls-5" transform="translate(1174.68 668.57) scale(0.89 0.99)">with <tspan class="cls-6" x="121.08" y="0">GIOM</tspan></text><path class="cls-4" d="M1148.8,501.53c-24.85,56.68-17.44,39.83-38.8,88.59l-15.25,0,46.78-103.7,14.65,0L1203.4,590l-15.54,0C1165.87,540.22,1174.28,559.19,1148.8,501.53Z"/><path class="cls-4" d="M1286,515.85l.09,64q0,19.41-9.6,28.71t-28.75,9.33a68.83,68.83,0,0,1-20-2.83,39.55,39.55,0,0,1-15.37-8.15l6.41-10.34a38,38,0,0,0,12.79,7,48.3,48.3,0,0,0,15.71,2.56q13,0,19.2-6.17t6.18-18.72v-5.87A29.79,29.79,0,0,1,1261,584a39,39,0,0,1-15,2.88,40.42,40.42,0,0,1-19.21-4.51,33.83,33.83,0,0,1-13.5-12.69,38,38,0,0,1,0-37.29,33.32,33.32,0,0,1,13.46-12.66,40.93,40.93,0,0,1,19.2-4.49,39,39,0,0,1,15.57,3,28.9,28.9,0,0,1,11.82,9.06l0-11.45,12.71,0Zm-38.46,59.27a27.51,27.51,0,0,0,13-3.09,22.79,22.79,0,0,0,9.07-8.61,23.94,23.94,0,0,0,3.26-12.5q0-10.75-7.15-17.38t-18.3-6.61q-11.31,0-18.43,6.66t-7.09,17.4a23.87,23.87,0,0,0,3.3,12.5,22.68,22.68,0,0,0,9.09,8.57A27.59,27.59,0,0,0,1247.52,575.12Z"/><rect class="cls-7" x="1350.53" y="486.14" width="13.41" height="103.63" transform="translate(-0.76 1.93) rotate(-0.08)"/><path class="cls-4" d="M1456.42,553a39.87,39.87,0,0,1-.27,4.06l-60.06.08a23.26,23.26,0,0,0,8.61,15.7q7.35,5.93,18.24,5.91,13.26,0,21.35-9l7.42,8.65a32.43,32.43,0,0,1-12.49,8.95,47.1,47.1,0,0,1-37.5-1.69,34.37,34.37,0,0,1-14.06-13.46,38.63,38.63,0,0,1-5-19.54,39.18,39.18,0,0,1,4.79-19.42,34.47,34.47,0,0,1,13.25-13.5,37.76,37.76,0,0,1,19-4.84,37,37,0,0,1,18.93,4.79,33.85,33.85,0,0,1,13,13.46,41,41,0,0,1,4.71,19.82Zm-36.63-26.76a23.16,23.16,0,0,0-16.12,5.89,23.6,23.6,0,0,0-7.59,15.37l47.48-.07a23.82,23.82,0,0,0-7.63-15.28A23,23,0,0,0,1419.79,526.27Z"/><path class="cls-4" d="M1311.54,515.81l13.41,0,.1,74-13.4,0-.08-56c0-8.85-6.13-10.21-14.09-14.53a1.76,1.76,0,0,1-.92-2.09,2,2,0,0,1,2-1.37Z"/><path class="cls-3" d="M1298.74,488c-2.44-1-1.88-1.72-1.85-1.72l26.32-.06a1.61,1.61,0,0,1,1.69,1.68l0,25.86a1.44,1.44,0,0,1-1.14-.67,42.49,42.49,0,0,0-6.11-10.79l1.59-7.23c-.17.12-.08,0-.22.2l-.17.24c-.62,1-1.55,4.17-2.16,5.62a42.11,42.11,0,0,0-6.41-6.18l.85-.37c.74-.38,1.38-.73,2.12-1.08l4.49-2.18a12.88,12.88,0,0,0-2.66.81l-2.53.66c-.8.22-2.36.61-3.88,1A44.17,44.17,0,0,0,1298.74,488Z"/><path class="cls-4" d="M1153,554.58c-3.35-1.42-2.58-2.37-2.55-2.37l32.72-.08a2.23,2.23,0,0,1,2.32,2.32L1189,590a2,2,0,0,1-1.58-.92C1181.85,574.49,1167.81,559.93,1153,554.58Z"/><polygon class="cls-3" points="902.61 499.66 902.66 535.78 954.62 535.71 954.64 548.44 902.68 548.52 902.74 590.41 887.93 590.43 887.79 486.81 960.91 486.7 960.93 499.58 902.61 499.66"/><rect class="cls-8" x="974.59" y="486.67" width="13.41" height="103.63" transform="translate(-0.76 1.39) rotate(-0.08)"/><path class="cls-3" d="M1079,516.14l-35.78,81.47q-4.73,11.32-11.08,15.94a25.32,25.32,0,0,1-15.28,4.63,32.19,32.19,0,0,1-10.55-1.73,21.48,21.48,0,0,1-8.45-5.09l5.71-10.06a18.64,18.64,0,0,0,13.27,5.43,12.77,12.77,0,0,0,8.17-2.6q3.27-2.58,5.92-8.87l2.37-5.18-32.79-73.83,14,0,25.92,59.18,25.47-59.25Z"/></g></svg>