<svg xmlns="http://www.w3.org/2000/svg" viewBox="0 0 966.09 370.64"><defs><style>.cls-1,.cls-4{fill:#949699;}.cls-1,.cls-2,.cls-3{fill-rule:evenodd;}.cls-2{fill:#529644;}.cls-3,.cls-6{fill:#0e1f17;}.cls-4{font-size:42px;font-family:Montserrat-Medium, Montserrat;font-weight:500;}.cls-5{font-size:62px;font-family:Montserrat-SemiBold, Montserrat;font-weight:600;}</style></defs><g id="Layer_2" data-name="Layer 2"><path class="cls-1" d="M245.36,208.3a3.66,3.66,0,0,1-1.89-4.3,4.08,4.08,0,0,1,4-2.81h57c4.65,0,4.16,1.3,4.17,4.17v57l-1.21,7.82-1,.49-3.28-4.56c-2.26.49-8.4-9.3-8.73-11.24-.25-.73-.49-1.47-.77-2.2s-6.15-11.06-6.25-11.18c-10.19-13.78-21.14-21.79-42-33.16Zm55.25,46c0-.42-.56-6.76-.6-7.15l.12-8.48c.06-1.4,1.5-8,1.87-9.92.9-4.72,1.86-10.61,2.36-15.44l.38-5.56c.27-.23,2.14-1.16.52-1.46-1-.18-8.57.21-9.75.29-3.17.23-19.23,1.67-22.13,1.37-1.66-.18-1.64.2-3.06.39l-4.59.39c-1.13.07-.73.18-1.38.35-1.6.43-5.21-.23-5.66,1.15l5.21.49c1.41,1.87.18-.27,3.23,2.13a25.13,25.13,0,0,1,2.9,2.45c3.13,3.37,3.25,4.94,4.49,6.19,2.45-.25,5.27-1.49,7.63-2.12l3.78-1a18.34,18.34,0,0,1,4-1.2l-6.7,3.23c-1.11.53-2.07,1.06-3.18,1.61s-2.67.92-2.94,1.95l.4.12.1,0v1.14c.52.28,1.15.44,1.6.75a16.21,16.21,0,0,1,3.55,3.7,19.38,19.38,0,0,0,3.27,3.8c1,1,.08.85.74,1.72l1.38-3c.9-1.88,2.43-7.19,3.43-8.8,0-.06.2-.3.25-.35a1,1,0,0,1,.32-.31l-2.82,12.73c0,.05,0,.1-.05.14-.13.39-.27,0-.11.84,3.67-.62,7.2,4.49,8.11,6.76.76,1.9-.37.08,1.05,2a4.07,4.07,0,0,1,.87,2.18c0,.38,0,.73,0,1C299.72,248.81,300.27,254.11,300.61,254.33Z"/><path class="cls-2" d="M224.58,105.63c-7.82-3.35-6-5.55-5.94-5.55l84.58-.08a5.24,5.24,0,0,1,5.42,5.42v83.07c-2.35-.33-2.67-1.05-3.68-2.15a134.81,134.81,0,0,0-19.58-34.7l5.15-23.22a2.08,2.08,0,0,0-.7.66,9.21,9.21,0,0,0-.53.76c-2,3.24-5,13.39-7,18A136.27,136.27,0,0,0,261.75,128c.93-.41,1.9-.78,2.73-1.19,2.37-1.19,4.45-2.34,6.84-3.46l14.41-7c-3.77.35-7.14,2.28-8.53,2.58l-8.14,2.1c-2.59.7-7.6,2-12.48,3.09C246.85,117.28,236,109.76,224.58,105.63Z"/><path class="cls-3" d="M122.51,166.57c5.1,4.16,12,7.67,17.11,12,6.94,6,15,12.09,21.57,18.46,3.31,3.24,7.12,6.87,10.12,10.38,8.68,10.12,13.89,17.78,22.6,27.91l1.9,2.27c7.32,8.68,10.44,19.07,20,29.19.47.5,2.82,3.85,3.44,3.89,1.82-1.05,6.24-6.45,6.24-9.69V187.87a21.84,21.84,0,0,0-1.88-4c-.4-.81-1.19-3.29-1.93-3.55-1.27.52-1.9,2.85-2.1,4a17.49,17.49,0,0,0-.36,6.12c.79,11.08.9,22.3.86,33.4-.05,9.1.52,14.68-1,23.55-.15.75-.37,1.65-.63,2.58-.22-.39-.44-.74-.61-1a28,28,0,0,0-2.22-3.73c-.56-.86-1.16-1.72-1.75-2.57l-2.61-3.66c-3.63-5.48-10-9.49-14.9-14a16.34,16.34,0,0,1-1.29-1,11.5,11.5,0,0,1,.06-2.27c.35-1.38-.1-4.09,0-5.53,0-3.26,7.17-20.71,6.54-24.94,0,.19-10.35,15.95-13,21.81-1.82-3.64-.75-3.21-5.87-7.57a43.88,43.88,0,0,0-5.14-3.65l-.23-.12a7.75,7.75,0,0,0-1.8-.84c-3.15-2.81-7.2-4.1-8.39-6.68,8.09-4.46,25.17-15.17,31.89-20.69-2.19.53-14,5.48-15.19,6-2.22,1-13,5-19.8,8.25a14.15,14.15,0,0,0-1.48-1.84s-.19-.19-.28-.3c-.77-.82-1.55-1.64-2.34-2.45,0-1.57-9.32-6.29-10.39-7.71-4.07-5.23-18.43-18.66-26.53-19,16.85.87,29.06,0,46.14.26,7.32.11,14.64.25,22,.38l17.34.5c2.55-.38,12.16-1.77,13.53-3.36-1.74-2.81-14.48-3.05-17.09-3.09h-100c-4.81,0-6.09,1.11-4.94,2.51C103.57,157.91,117.36,162.42,122.51,166.57Z"/></g><g id="Layer_3" data-name="Layer 3"><text id="_.blog" data-name=".blog" class="cls-4" transform="translate(611.22 270.98) scale(0.89 0.99)">with <tspan class="cls-5" x="106.76" y="0">GIOM</tspan></text><path class="cls-3" d="M594.57,123.49c-22,50-15.42,35.1-34.32,78.06H546.8l41.38-91.37H601.1l41.51,91.37h-13.7C609.58,157.62,617,174.36,594.57,123.49Z"/><path class="cls-3" d="M715.51,136.28v56.4q0,17.12-8.5,25.31t-25.36,8.19A60.42,60.42,0,0,1,664,223.65a34.87,34.87,0,0,1-13.55-7.2l5.66-9.11a33.65,33.65,0,0,0,11.27,6.22,43.07,43.07,0,0,0,13.86,2.27q11.44,0,16.93-5.42t5.48-16.5v-5.17a26.22,26.22,0,0,1-10.28,7.58,34.35,34.35,0,0,1-13.24,2.52,35.64,35.64,0,0,1-16.93-4,29.8,29.8,0,0,1-11.89-11.21,33.51,33.51,0,0,1,0-32.88,29.42,29.42,0,0,1,11.89-11.14,36.08,36.08,0,0,1,16.93-3.94,34.54,34.54,0,0,1,13.73,2.71,25.4,25.4,0,0,1,10.4,8v-10.1Zm-34,52.22A24.3,24.3,0,0,0,693,185.79a20.07,20.07,0,0,0,8-7.58,21.11,21.11,0,0,0,2.89-11q0-9.48-6.28-15.33T681.52,146q-10,0-16.25,5.85T659,167.19a21.11,21.11,0,0,0,2.89,11,20,20,0,0,0,8,7.58A24.49,24.49,0,0,0,681.52,188.5Z"/><rect class="cls-6" x="772.4" y="110.18" width="11.82" height="91.37"/><path class="cls-3" d="M865.74,169.29a34.83,34.83,0,0,1-.24,3.57h-53a20.44,20.44,0,0,0,7.57,13.85q6.46,5.23,16.07,5.23,11.7,0,18.84-7.88l6.53,7.64a28.65,28.65,0,0,1-11,7.88A41.56,41.56,0,0,1,817.47,198a30.27,30.27,0,0,1-12.37-11.88,34,34,0,0,1-4.38-17.24A34.64,34.64,0,0,1,805,151.8a30.38,30.38,0,0,1,11.7-11.88,33.26,33.26,0,0,1,16.81-4.25,32.6,32.6,0,0,1,16.69,4.25,29.83,29.83,0,0,1,11.45,11.88,36.21,36.21,0,0,1,4.12,17.49Zm-32.26-23.65a20.42,20.42,0,0,0-14.22,5.18,20.78,20.78,0,0,0-6.71,13.54h41.86a20.94,20.94,0,0,0-6.71-13.48A20.3,20.3,0,0,0,833.48,145.64Z"/><path class="cls-3" d="M738.05,136.28h11.82v65.27H738.05V152.16c0-7.8-5.39-9-12.41-12.83a1.57,1.57,0,0,1-.81-1.84,1.76,1.76,0,0,1,1.72-1.21Z"/><path class="cls-2" d="M726.79,111.72c-2.14-.92-1.65-1.52-1.63-1.52l23.22,0a1.54,1.54,0,0,1,1.07.42,1.58,1.58,0,0,1,.42,1.07v22.8a1.27,1.27,0,0,1-1-.59,36.79,36.79,0,0,0-5.38-9.53l1.41-6.37a.64.64,0,0,0-.19.18l-.14.21c-.56.89-1.38,3.67-1.92,4.95a37,37,0,0,0-5.65-5.46c.26-.11.53-.21.75-.33.66-.32,1.23-.64,1.88-1l4-1.91a11.15,11.15,0,0,0-2.34.71L739,116c-.71.19-2.08.54-3.42.85A39.27,39.27,0,0,0,726.79,111.72Z"/><path class="cls-3" d="M598.21,170.27c-3-1.26-2.27-2.09-2.24-2.09l28.84,0a2,2,0,0,1,2.05,2l3.08,31.36a1.74,1.74,0,0,1-1.39-.81C623.63,187.86,611.26,175,598.21,170.27Z"/><polygon class="cls-3" points="377.5 121.53 377.5 153.38 423.31 153.38 423.31 164.61 377.5 164.61 377.5 201.55 364.45 201.55 364.45 110.18 428.93 110.18 428.93 121.53 377.5 121.53"/><rect class="cls-6" x="440.92" y="110.18" width="11.82" height="91.37"/><path class="cls-3" d="M533,136.28l-31.65,71.8q-4.19,10-9.79,14a22.33,22.33,0,0,1-13.48,4.07,28.7,28.7,0,0,1-9.3-1.54,19.11,19.11,0,0,1-7.45-4.5l5.05-8.86a16.48,16.48,0,0,0,11.7,4.8,11.28,11.28,0,0,0,7.2-2.28q2.9-2.28,5.24-7.82l2.09-4.56-28.82-65.14h12.32l22.78,52.22,22.53-52.22Z"/></g></svg>